<?xml version="1.0" encoding="UTF-8"?>
<svg id="uuid-f2f0c865-cfca-4d7b-b4ab-1a1f30367a7c" data-name="graphic elements" xmlns="http://www.w3.org/2000/svg" viewBox="0 0 286.36 201.31">
  <g id="uuid-f2ee155f-3a3a-46bb-8cd4-53d2d420893d" data-name="graphic elements">
    <g>
      <polygon points="158.87 199.72 160.82 199.36 162.04 199.28 162.73 198.92 163.49 198.91 163.63 198.67 163.9 198.55 164.49 198.61 165.17 198.63 165.97 198.41 166.67 198.59 167.8 198.28 168.2 197.9 168.6 197.7 169.32 197.25 169.76 197.31 170.37 197.4 171.01 197.15 171.31 197.16 171.69 197.34 172.45 197.45 172.94 197.45 174.01 196.76 174.41 196.22 174.89 195.92 176.21 195.71 176.98 195.75 177.96 195.78 178.23 195.66 178.49 195.36 179.11 195.18 179.55 194.84 180.11 194.61 181.76 194.66 182.83 194.12 183.03 193.79 183.3 193.29 183.82 192.87 184.65 192.5 184.93 192.2 185.17 192.12 185.77 192.25 186.06 192.2 187.35 191.51 187.78 191.46 189.44 190.73 190.26 190.62 190.79 190.55 191.13 190.51 191.6 190.39 191.84 189.97 192.54 189.38 193.15 189.22 193.69 188.64 194.22 188.37 194.93 187.97 195.67 187.54 196.22 186.84 198.07 186.53 198.63 186.21 199.2 186.18 199.58 185.85 200.01 185.71 200.02 185.22 200.36 184.47 200.86 184 201.21 183.77 201.47 183.47 202.15 183.16 202.55 182.97 203.02 182.65 203.55 182.39 204.59 181.34 205.32 180.89 205.46 180.67 205.66 180.32 206.09 179.96 206.69 179.4 207.46 179 207.56 178.75 207.68 178.33 208.11 177.99 208.51 177.63 208.78 177.18 209.73 176.56 210.08 176.3 210.32 175.82 211.11 175.24 211.77 174.24 212.25 173.93 213.55 173.42 213.82 173.12 214.71 172.14 215.59 171.63 216.5 170.47 216.49 170.17 216.39 169.75 216.58 169.23 217.22 168.36 217.92 167.75 218.73 167.34 219.04 167.08 219.43 166.2 220.39 165.26 220.7 164.64 221.07 163.57 221.81 162.64 222.03 162.46 222.2 161.93 223.13 161.13 223.43 160.51 223.66 160.02 224.29 159.3 224.47 158.79 225.09 158.09 225.32 157.58 225.67 156.31 225.75 156.05 225.98 155.86 226.43 155.72 226.57 155.5 226.76 155.15 227.12 154.9 227.49 154.68 228.15 153.51 228.44 153.05 228.83 152.32 228.91 151.9 229.26 151.48 229.33 151.19 229.31 150.67 229.56 150.37 230.16 149.81 230.39 149.14 230.45 148.69 231.02 147.77 231.4 147.38 231.42 147 231.42 146.59 231.61 145.73 232.14 144.97 232.67 144.51 233.28 143.65 233.28 143.09 233.46 142.54 233.57 142.13 233.88 141.66 233.92 141.14 234.52 140.06 234.58 139.45 234.79 139.26 235.31 139.01 235.51 138.65 235.79 137.84 236.04 137.36 236.12 136.08 236.23 135.66 236.24 135.25 236.58 134.84 236.8 133.99 237.02 133.5 237.25 133 237.36 132.74 237.35 131.81 237.86 130.84 238.04 130.3 238.52 129.5 238.64 128.93 239.01 128 239.2 127.31 239.48 125.99 239.51 125.17 239.85 124.25 240 123.17 240.17 122.28 240.19 121.73 240.26 121.11 240.25 120.58 240.58 118.81 240.8 118.13 240.92 117.21 241.17 116.19 241.3 115.62 241.48 114.91 241.81 113.83 241.79 113.41 242 112.29 241.95 111.6 241.65 110.89 241.64 110.28 241.81 109.37 241.88 108.07 242.04 107.51 241.98 106.24 241.94 105.71 241.79 104.78 241.89 104.16 242.05 103.94 242.34 103.88 242.69 103.89 242.81 103.82 242.9 103.54 242.77 102.71 242.75 101.16 243.21 99.82 243.32 99.06 243.38 98.44 243.65 97.79 243.72 97.32 244.13 96.97 244.44 96.91 244.89 96.94 245.5 96.41 246.1 96.19 246.76 96.22 246.99 96.11 247.3 95.84 248.95 94.97 249.47 94.76 249.81 94.52 250.11 94.47 250.57 94.58 252.2 94.43 253.04 94.08 253.6 94.18 254.05 94.24 254.77 93.97 255.45 93.47 256.98 92.79 257.79 92.59 258.28 92.5 258.88 92.6 259.87 92.36 261.84 92.11 262.72 91.78 263.2 91.46 264.05 90.96 264.49 90.81 265.49 90.74 265.8 90.68 266.69 90.2 267.79 89.58 269.29 89.25 270.37 88.91 271.01 88.56 271.4 88.36 272 87.64 272.28 87.35 273.15 87.04 273.86 87.08 274.6 86.79 274.83 86.64 275.32 86.52 275.8 86.05 276.55 85.78 277.6 84.56 278.02 83.86 278.38 83.64 279.08 83.47 279.3 83.14 279.51 82.79 280.63 81.79 281.6 81.36 282.27 81.05 282.76 80.74 283.58 80.69 284.12 80.21 284.39 79.93 284.88 79.65 285.22 79.21 285.62 78.53 285.72 77.79 285.52 77.23 285.65 76.84 285.74 76.55 285.69 75.69 285.72 75.03 285.87 74.46 285.99 73.87 286.25 73.39 286.36 71.82 286.25 71.13 286.25 70.34 285.86 69.28 285.59 68.81 285.48 68.3 285.69 67.79 285.61 67.55 285.36 67.2 285.39 66.93 285.55 66.58 285.51 66.12 285.54 65.82 285.22 64.97 285.09 64.45 284.81 63.57 284.73 63.13 284.31 61.72 284.05 60.54 283.75 59.61 283.53 59.26 283.4 58.57 282.83 57.55 282.68 57.1 282.24 56.57 281.95 55.79 281.72 55.22 281.74 54.73 281.8 54.27 281.48 53.6 280.71 52.61 280.41 51.93 279.96 51.14 279.02 49.93 278.73 49.44 278.35 49.07 278 48.65 277.7 48.38 277.23 47.04 276.7 46.2 276.46 45.43 276 44.94 275.48 44.51 275.18 44.01 274.6 43.23 274.15 42.51 273.38 41.98 272.79 41.87 272.59 41.68 272.36 41.16 272.27 40.74 271.58 39.89 271.1 39.41 270.71 38.84 270.22 38.58 269.82 38 269.46 37.6 268.98 37.36 268.4 36.79 267.95 36.29 267.55 35.92 267.09 35.43 266.76 35.22 266.19 35.05 265.46 34.47 265.06 34.11 264.31 33.56 263.73 33 262.48 32.44 261.65 31.74 260.68 31.26 259.35 30.36 259.03 29.89 257.88 28.75 256.62 27.98 256.02 27.43 255.14 27.28 254.56 26.92 253.44 26.17 252.91 25.99 252.25 25.74 251.92 25.51 251 25.17 250.54 24.91 249.29 24.75 248.49 24.46 248.08 24.35 247.53 24.19 246.83 23.76 246.45 23.38 244.99 22.64 244.59 22.28 243.26 21.81 241.86 21.24 241.36 21.01 239.89 20.9 239.26 20.84 238.59 20.83 237.79 20.55 236.43 20.55 235.8 20.28 234.67 19.96 233.05 19.64 232.3 19.55 229.76 19.44 228.96 19.35 228.41 19.2 227.66 19.06 225.78 19.07 222.21 18.64 221.7 18.42 219.46 18.23 218.51 18.29 217.73 18.18 217.21 18.27 216.63 18.47 215.85 18.52 215.34 18.55 214.86 18.53 214.39 18.63 213.4 18.67 212.18 18.8 209.92 19 209.25 19.21 206.96 19.68 206.01 19.77 205.35 19.84 204.14 19.98 203.43 20.1 202.86 19.98 202.32 19.81 201.59 19.9 201.03 20.16 200.04 20.36 199.54 20.6 199.11 20.68 198.35 21.09 197.8 21.22 196.99 21.61 196.49 21.63 195.64 21.21 195.3 20.79 194.72 20.21 193.64 19.44 193.27 19.04 192.3 18.34 191.88 18 190.32 16.95 189.97 16.73 189.58 16.37 188.95 15.87 188.52 15.36 187.08 14.39 186.28 13.87 185.36 13.3 184.62 12.72 184.27 12.53 183.89 12.14 183.31 11.81 182.3 11.14 181.3 10.68 180.5 10.18 180.21 9.92 179.6 9.61 178.79 9.11 177.41 8.7 176.15 8.14 175.32 7.91 174.07 7.1 173.47 6.79 173.11 6.62 171.94 6.13 170.96 5.66 169.43 5.21 168.64 4.95 167.39 4.58 167.02 4.4 165.86 4.14 164.99 3.94 164.28 3.76 163.82 3.47 162.6 3.08 162.26 2.87 161.42 2.76 160.86 2.41 158.71 2.12 157.97 1.8 157.18 1.84 155.81 1.4 155.46 1.21 154.18 1.13 153.38 1.3 152.35 1.51 151.93 1.43 151.41 1.23 150.65 1.1 150.07 .55 149.47 .22 147.58 .03 146.98 .07 146.01 0 145 0 144.3 .14 143.82 .27 143.12 .39 142.86 .51 142.65 .89 142.4 .99 140.78 .67 139.98 .74 139.52 .74 136.91 1.25 135.87 1.26 135.08 1.25 134.3 1.67 133.65 1.85 133.37 1.79 132.82 1.4 131.62 1.47 130.87 1.74 129.94 2 129.52 1.98 128.7 2.36 126.92 2.52 125.91 2.5 125.25 2.28 124.74 2.35 123.49 2.88 122.42 3.08 122.01 3.16 121.45 3.21 120.6 3.56 117.21 4.52 116.28 4.98 115.56 5.14 114.87 5.45 114.34 5.88 113.53 6.44 112.53 6.84 111.83 7.11 111.38 7.16 110.42 7.57 109.02 8.09 107.84 8.68 105.32 9.6 105.12 9.78 105 10.02 103.79 10.61 103.21 10.75 102.3 10.89 101.75 11.13 101.33 11.34 100.14 12.44 99.84 12.87 99.12 13.32 98.37 14.1 97.63 14.36 96.43 14.6 95.42 15.19 95.07 15.24 93.48 14.66 92.93 14.29 91.14 13.55 90.75 13.4 90.44 13.14 89.92 12.92 89.46 12.63 88.58 12.25 88.13 11.96 87.09 11.78 86.17 11.79 84.59 11.18 84.04 11.02 83.31 10.86 82.36 10.33 81.79 10.21 81.16 10.12 80.22 9.83 79.14 9.69 78.64 9.45 77.03 9.1 76.45 9.01 76.07 8.97 74.39 8.27 73.74 8.25 73.52 8.08 73.13 7.71 72.83 7.46 72.64 7.05 72.42 6.89 70.88 6.7 70.39 6.43 69.96 6.41 69.49 6.55 69.24 6.47 68.96 6.37 67.93 6.56 66.69 6.43 66.24 6.46 65.82 6.32 65.01 6.3 64.59 6.43 64.32 6.36 63.59 5.78 62.98 5.68 62.37 5.74 61.23 5.62 60.71 5.64 60.39 5.71 60.13 5.64 59.75 5.25 59.48 5.16 59.04 5.18 58.44 5.36 57.69 5.26 56.93 5.3 56.23 5.09 54.92 5.18 54.42 5.15 53.56 5.32 52.79 5.22 51.81 5.3 51.12 5.27 50.18 4.94 49.46 4.98 48.75 5.27 47.87 5.6 47.07 5.58 46.25 5.81 45.49 6.05 45.14 6.29 44.49 6.34 44.14 6.5 43.74 6.4 43.33 6.61 43.1 6.8 42.21 6.81 41.35 6.99 40.29 7.39 39.79 7.56 39.33 7.68 38.9 7.55 38.62 7.66 37.54 8.51 37.05 8.8 36.57 9.43 34.74 10.06 33.03 10.9 32.09 11.52 31.51 11.75 30.89 12.3 29.95 12.91 29.02 13.54 28.41 13.9 27.84 14.29 26.65 14.91 25.98 15.4 25.64 15.81 25.14 16.09 24.46 16.74 23.73 17.19 23.18 17.78 22.39 18.35 21.74 19.02 21.27 19.67 20.91 20.08 20.47 20.58 20.11 20.96 19.51 21.35 18.88 22.04 18.48 22.41 18.09 22.79 17.76 23.03 17.1 23.37 16.45 23.89 16.11 24.3 15.56 24.71 15.23 25.14 14.37 25.98 13.69 26.99 13.2 27.79 12.82 28.16 12.48 28.59 11.85 29.29 11.33 30.05 11.07 30.53 10.59 31.17 10.28 31.94 9.82 32.44 9.28 33.03 8.91 33.59 8.78 34 8.39 34.37 8.09 35.16 7.94 35.54 7.26 36.22 6.81 36.87 6.49 37.48 6.13 38.22 5.83 39 5.3 39.78 5.08 40.1 4.75 40.52 4.48 40.99 4.07 41.52 3.96 41.94 3.82 42.34 3.46 42.9 3.41 43.56 3.19 44.07 3.18 44.56 3.03 44.8 2.75 45.08 2.47 45.55 2.22 46.02 1.75 47.36 1.4 48.28 1.19 48.96 .81 50.2 .72 50.8 .44 51.44 .35 52.04 .31 52.68 .15 53.22 .19 54.24 .05 54.81 .07 55.22 0 55.84 .29 56.49 .3 57.49 .79 58.37 .81 58.64 .58 59.16 .39 60.54 .41 61.23 .68 61.98 .82 62.65 1.01 62.84 1.85 63.3 2.18 63.73 2.52 63.96 3.19 65.49 3.7 66.34 4.65 67.08 5.44 67.59 6.4 68.97 6.64 69.3 7.42 70.04 8.16 70.39 8.4 70.74 8.78 71.58 9 71.91 9.78 72.24 10.1 72.48 10.75 72.72 11.53 73.26 12.08 73.86 12.82 74.41 13.12 74.7 13.86 75.01 14.28 75.16 14.64 75.57 15.1 75.62 15.57 75.67 15.92 75.85 16.4 76.35 16.9 76.6 17.3 76.94 17.81 76.95 18.11 76.99 18.97 77.41 19.69 77.81 20.22 78.19 20.93 78.39 21.33 78.51 22.03 78.93 22.4 79.1 22.71 79.35 23.5 79.65 24.44 80.18 25.01 80.3 25.73 80.53 26.57 81.15 26.92 81.26 27.57 81.25 28.12 81.43 28.97 82.07 29.31 82.52 29.69 82.67 30.42 82.82 30.86 83.14 31.16 83.17 31.41 83.06 31.76 82.65 32.66 82.56 33.09 82.7 33.64 82.87 34.11 82.91 34.57 83.18 35.43 83.28 35.9 83.16 36.17 83.24 36.55 83.4 37.47 83.5 38.08 83.32 38.39 83.38 39 83.67 40.18 84.11 40.7 84.11 41.15 84.05 42.16 84.28 43.66 84.34 43.93 84.43 44.59 84.29 44.91 84.33 45.22 84.6 45.74 84.99 46.53 85.5 47.04 85.51 47.56 85.52 48.08 85.69 48.6 85.68 48.83 85.84 48.98 86.07 49.01 87.14 48.84 87.7 48.83 88.52 48.8 89.88 48.91 90.36 48.58 91.47 48.61 91.91 48.36 92.37 48.29 92.99 48.31 94.02 47.99 95.49 47.95 97.05 47.85 97.78 47.91 98.76 47.86 99.92 47.74 101.37 47.81 102.1 47.78 102.54 47.92 102.96 47.82 103.58 47.81 104.08 47.72 104.7 47.8 105.89 47.89 106.8 47.77 107.07 47.98 108.33 48.12 109.53 48.14 110.78 48.16 112.5 48.47 113.33 48.23 114.75 48.08 115.86 48.27 116.73 48.38 117.68 48.54 118.09 48.48 118.54 48.7 119.14 48.6 119.76 48.66 120.03 48.93 120.17 49.08 120.27 48.87 120.41 48.64 120.59 48.53 121 48.67 121.47 48.76 122.14 48.98 122.65 49.07 123.47 49.44 124.52 49.46 125.21 49.85 126.64 50.11 128.52 50.39 129.22 50.77 131.02 51.24 133.19 51.51 133.68 51.66 134.75 51.8 135.2 52.04 136.38 52.2 136.83 52.71 137.48 53.12 138.26 53.52 139.33 54.13 140.5 54.49 142.21 54.6 142.79 54.93 143.67 55.27 144.1 55.34 145.26 55.48 145.48 55.66 145.9 55.91 146.45 56.02 146.95 56.26 147.5 56.46 148.32 56.71 148.89 57.61 149.88 58.24 150.81 58.9 152.14 59.49 153.56 59.7 153.93 59.83 154.19 59.85 154.69 60.48 155.82 61.01 156.66 61.66 158.22 62.04 159.53 62.42 159.9 63.13 160.96 63.46 161.19 63.61 161.35 63.59 161.8 63.88 162.5 64.05 162.94 64.51 163.65 64.93 163.98 65.42 164.66 65.75 164.88 66.72 165.6 67.63 166.39 67.89 166.93 68.25 167.33 68.81 167.71 68.98 167.92 69.08 168.45 69.43 169.29 70.12 169.94 70.82 170.34 71.16 170.79 71.45 171.03 71.85 171.41 72.05 171.88 72.54 172.56 73.1 173.13 73.29 173.53 73.51 173.89 74.24 174.27 74.94 175.12 75.24 175.38 75.9 175.41 76.31 175.51 76.9 176.1 78.05 176.37 78.24 176.55 78.34 177.12 78.7 177.56 78.87 177.97 79.1 178.3 79.37 178.41 80.35 178.31 80.62 178.4 80.93 178.67 81.24 179.49 81.57 179.89 82.11 180.27 82.82 180.31 83.07 180.63 83.77 181.04 84.32 181.84 85.22 182.24 85.4 182.43 85.47 182.76 85.59 183.06 86.08 183.31 87.29 184.14 87.56 184.22 88.1 184.17 88.5 184.17 89.22 184.57 89.65 184.9 90.31 185.12 90.64 185.57 91.38 186.13 91.66 186.44 91.93 186.74 92.6 186.97 93.22 187.48 93.69 187.94 94.27 188.1 95 188.47 95.43 188.78 95.76 189.02 96.35 189.14 96.97 189.41 97.37 189.78 97.72 189.97 98.23 190.21 98.65 190.3 99.24 190.43 99.66 190.42 99.89 190.53 101.1 191.16 101.72 191.68 102.61 192.07 103.03 192.05 103.64 192.13 103.98 192.32 104.4 192.47 104.82 192.59 105.82 193.03 106.55 193.62 107.14 193.72 108.34 194.14 109.2 194.16 109.66 194.2 110.37 194.81 110.74 195.02 111.8 194.98 112.04 194.97 112.66 195.5 113.12 195.56 115.69 195.98 116.27 196.33 116.87 196.44 117.47 196.96 118 197.16 118.48 197.41 119.01 197.39 119.8 197.46 120.48 197.91 121.24 197.99 121.62 198.19 122.19 198.18 123.81 198.94 124.31 198.93 125.14 199.2 126.09 199.5 127.75 199.77 129.22 199.87 130.15 199.81 131.27 199.91 132.02 200.04 132.66 200.09 133.23 200.23 133.7 200.27 134.31 200.09 134.72 200.23 136.07 200.45 136.74 200.31 137.83 200.45 138.72 200.21 139.02 200.24 139.59 200.58 140.24 200.64 140.72 200.89 141.34 200.82 142.07 200.98 142.86 201.05 144.53 200.65 145.82 200.66 146.25 200.73 146.65 200.77 147.45 200.78 148.74 201.08 149.13 200.95 149.39 200.9 149.85 201.2 150.25 201.31 150.87 201.14 151.95 200.62 152.3 200.61 152.72 200.71 152.98 201.04 153.27 200.93 153.77 200.98 154.76 200.95 155.48 200.66 156.55 200.48 158.33 199.78 158.87 199.72" fill="#221714" fill-rule="evenodd" stroke-width="0"/>
      <polyline points="157.89 193.03 156.39 193.36 154.8 193.47 153.76 193.56 152.41 193.57 150.43 193.68 149.17 193.58 148.09 193.66 147.45 193.75 146.74 193.83 146.12 193.82 145.63 193.9 144.59 193.76 143.46 193.68 142.26 193.68 141.1 193.79 140.3 193.74 139.5 193.95 137.89 193.82 135.35 193.38 134.57 193.28 133.13 193.26 132.39 193.17 131.85 192.99 130.87 192.72 130.01 192.76 129.2 192.49 128.77 192.53 128.34 192.4 127.3 192.22 126.23 192.05 124.3 191.48 123.69 191.39 122.99 191.21 122.15 190.96 120.4 190.73 119.54 190.54 118.06 190.25 116.57 189.98 116.08 189.75 115.64 189.64 114.92 189.25 114.34 189.13 114.11 189 113.12 188.54 112.25 188.33 111.35 187.75 110.54 187.48 109.75 187.4 107.62 186.65 107.02 186.34 105.64 185.69 105.06 185.58 104.55 185.36 103.72 184.91 103.14 184.77 102.56 184.44 101.89 184.19 101.56 183.97 100.86 183.56 100.15 183.36 99.53 183.07 99.2 182.85 98.54 182.19 97.19 181.53 96.78 181.18 96.38 181.03 95.87 180.59 95.11 180.25 94.8 180.01 93.46 179.33 92.9 179.18 92.55 178.97 91.83 178.6 91.53 178.33 91.22 178.1 90.66 177.5 90 177.03 89.02 176.57 88.58 176.25 87.98 175.94 87.56 175.6 86.99 175.24 86.59 174.91 86.09 174.65 85.25 173.8 84.87 173.61 84.6 173.31 84.27 173.07 84.03 172.74 83.45 172.39 82.81 171.71 82.17 171.62 81.91 171.12 81.49 170.76 80.87 170.05 80.04 169.6 78.75 168.43 78.18 168.07 77.91 167.76 77.44 167.26 77.21 166.93 75.86 165.4 75.25 164.66 74.99 164.13 74.32 163.68 73.69 162.97 73.25 162.44 72.93 162.22 72.06 161.16 71.7 160.29 71.29 159.95 71.17 159.49 70.92 159.15 70.58 158.72 70.46 158.21 70.33 157.73 70.12 157.12 69.92 156.74 69.54 156.37 69.17 155.51 68.45 154.72 68.16 154.02 67.63 152.96 67.22 152.61 66.62 152.09 65.85 151.56 65.67 151.34 65.65 151.18 65.78 150.93 65.97 150.59 65.94 150.08 65.66 149.57 65.17 148.86 65.11 148.44 64.91 147.85 64.93 147.24 64.82 146.96 64.33 146.49 63.97 145.42 63.71 145.13 63.16 144.53 62.75 143.3 62.43 142.44 62.4 141.94 62.32 141.65 62.04 141.33 61.93 140.97 61.36 140.41 61.11 139.86 60.96 138.98 60.78 138.56 60.1 137.89 59.62 137.45 59.49 137.18 59.58 136.54 59.5 136.3 59.19 136.06 58.88 135.36 58.83 135.06 58.74 134.59 58.39 134.16 58.3 133.89 58.45 133.32 58.49 132.52 58.06 131.79 58.06 131.31 58.01 130.89 58.22 129.91 58.03 129.52 57.93 129.25 58.03 128.65 57.77 128.17 57.81 127.71 57.64 127.28 57.02 126.56 56.96 125.61 56.83 125.37 56.36 125.1 56.12 124.33 56.08 124.03 56.33 123.54 56.37 123.08 56.11 122.33 56.12 121.7 55.87 120.7 55.96 120.1 55.76 119.02 55.42 118.41 55.44 117.98 55.23 117.43 55.29 116.8 55.51 116.3 55.58 115.66 55.85 115.2 55.92 114.91 55.94 113.34 55.74 112.94 55.23 111.73 55.33 110.65 55.34 110.1 54.8 108.45 54.9 107.55 54.68 106.83 54.77 106.41 54.82 105.93 54.47 104.95 54.04 104.03 53.74 103.78 53.63 103.56 54.01 102.67 54.41 102.31 54.76 101.73 54.63 101.29 54.65 101.03 54.98 100.59 55.28 99.34 55.21 99.05 55.09 98.25 54.79 97.34 54.82 96.91 55 95.34 55.29 94.54 55.56 93.74 55.59 92.91 55.72 92.32 55.7 92.01 55.24 91.08 55.27 90.79 55.63 90.37 55.67 90.11 55.35 89.43 55.45 88.82 55.33 88.38 55.34 87.94 55.66 87.37 55.95 86.21 56.05 84.94 56.28 84.42 56.81 83.83 57.24 83.47 59.37 82.94 60.35 82.81 61.02 82.67 61.61 82.27 62.52 81.97 62.97 81.65 63.26 81.53 64.14 81.5 64.95 81.26 65.91 80.84 67.97 80.26 68.53 80.02 68.95 79.52 70.18 79.15 70.67 78.94 71.63 78.48 72.49 77.82 73.01 77.52 73.34 77.3 73.75 76.77 74.12 76.36 75.23 75.72 75.61 75.5 76.07 74.67 76.78 74.04 77.81 73.6 78.91 72.96 79.35 72.45 79.94 72.07 80.4 71.58 81.07 71.09 81.55 70.58 82.47 69.97 82.82 69.4 83.47 68.89 83.55 68.63 83.44 68.34 83.36 68.11 83.42 67.99 83.76 67.75 83.99 67.26 84.52 66.8 85.37 66.12 85.75 65.73 86.18 65.57 86.61 65.06 86.72 64.3 86.88 64.09 87.5 63.72 87.69 63.36 87.94 63.05 88.37 62.35 88.72 61.62 89.08 61.23 89.39 60.43 89.57 60.08 90.13 59.67 90.23 59.41 90.5 57.9 90.64 57.34 91.2 56.59 91.74 56.01 91.96 55.48 92.24 55.21 92.91 54.2 93.3 53.84 93.54 53.49 93.55 53.08 93.68 52.88 94.02 51.61 94.44 51.09 94.65 50.74 94.49 49.88 94.59 49.46 95.18 48.89 95.39 48.56 95.86 48.07 96.35 47.26 96.74 46.72 96.88 46.16 96.82 44.73 96.94 44.15 97.12 43.42 97.31 42.4 97.47 42.19 98 41.4 98.08 40.61 98.31 40.14 98.38 39.84 98.28 39.36 98.35 38.56 98.85 37.77 99.02 37.22 99.09 35.91 99.38 35.45 99.51 35.04 99.37 33.97 99.41 33.31 99.83 32.62 99.94 31.35 99.87 30.22 99.65 29.84 99.48 29.45 99.49 28.96 99.39 28.31 99.39 27.62 99.71 26.87 99.61 26.22 99.76 25.82 99.76 25.18 99.49 24.86 99.26 24.53 99.17 24.05 99.4 23.39 99.81 22.51 100.04 22.19 100.45 21.98 100.85 21.78 101.29 21.13 101.62 20.52 101.6 19.84 101.72 19.6 102.43 19.14 103.1 18.96 104.8 18.27 105.41 18.15 106.01 17.97 106.55 17.38 107.28 17.12 108.14 16.76 109.34 16.19 109.9 15.77 110.7 15.21 111.04 14.79 111.33 14.51 111.66 14.45 112.06 14.36 113.34 13.33 113.86 13.05 114.93 12.54 115.37 12.2 115.8 12.03 116.47 11.92 117.28 11.61 118.15 11.5 119.21 11.14 121.57 11.17 122.43 10.86 123.12 11.01 124.1 10.56 124.41 10.14 124.77 9.9 125.47 9.78 126.19 9.64 126.93 9.78 128.09 9.7 128.33 9.54 129.06 9.09 129.83 8.85 130.49 8.85 131.08 9.01 131.36 9.01 131.67 8.77 132.08 9.07 132.61 9.06 133.07 9.1 133.39 9.37 133.62 9.4 133.87 9.27 134.69 8.92 135.9 8.9 136.5 8.74 136.95 8.42 137.14 7.87 137.32 7.69 137.82 7.57 138.14 7.59 138.59 7.68 139.47 7.33 139.87 6.97 140.12 6.88 140.86 7.22 141.71 7.23 142.29 7.58 142.78 7.62 143.22 7.7 144.06 7.74 144.66 7.64 145.3 7.57 145.78 7.27 146.52 7.02 146.97 7.08 147.26 7.33 147.68 7.68 148.45 7.78 149.12 7.66 149.55 7.76 151 8.07 151.54 8.45 152.22 8.68 152.91 8.67 153.69 8.78 154.89 8.62 155.66 8.71 156.58 8.81 156.84 8.94 157.07 9.29 157.37 9.57 158.06 9.77 158.85 9.84 160.4 9.56 160.88 9.6 161.6 9.96 161.98 10.11 162.53 10.29 162.9 10.45 163.81 10.39 164.81 10.63 165.35 10.81 166.05 11.45 166.88 11.9 167.28 12.24 167.99 12.66 168.74 12.78 169.35 13.29 170.04 13.51 171.25 14.13 171.9 14.17 172.5 14.5 173.19 14.71 174.22 14.91 174.63 15.45 174.98 15.65 175.51 15.64 176 15.68 176.24 15.82 176.34 16.1 176.5 16.33 177.02 16.54 177.47 16.82 178.11 17.1 179.18 17.24 179.43 17.37 179.67 17.71 180.39 18.3 180.92 18.5 181.2 18.79 181.46 19.51 182.4 20.53 182.79 21.09 182.97 21.3 183.76 21.38 184.56 21.64 184.98 22.18 185.18 22.8 185.4 23.39 186 23.92 186.45 24.46 186.69 24.56 187.29 24.64 188.1 24.46 188.39 24.5 188.45 24.61 188.55 24.94 189.09 26.19 189.44 26.39 189.69 26.72 190.2 27.59 190.73 28.86 191.48 29.62 191.79 30.11 191.89 30.58 191.6 32.23 191.71 32.71 191.56 33.11 191.36 34.47 191.15 35.85 191.03 36.1 190.94 36.36 191.07 37.28 191.26 39.67 191.06 40.04 190.97 40.49 191.08 40.99 191.1 41.31 190.77 41.91 190.63 42.81 190.73 43.08 190.94 43.64 190.79 44.37 190.73 44.82 191 45.33 191.08 45.8 191.32 46.29 191.35 46.8 191.48 47.24 191.61 48.11 191.91 49.2 192.03 50.28 192.33 50.98 192.46 51.66 192.62 52.48 192.6 53.28 192.46 53.87 192.49 54.55 192.61 55.24 192.66 56.08 192.9 57.17 193.24 57.8 193.22 58.26 193.29 58.75 193.35 59.4 193.99 60.31 194.18 60.72 194.12 61.36 194.36 62.54 194.54 63.28 194.53 64.14 194.65 64.56 194.71 65.73 194.5 66.43 194.54 66.74 194.88 67.16 195.45 68.16 195.55 68.69 195.7 69.15 196.1 69.49 196.21 69.72 196.14 70.34 196.17 70.79 196.12 71.42 196.2 71.74 196.62 72.29 196.88 73.04 197.32 73.77 197.91 74.13 198.71 75.02 199.1 75.63 199.66 77.36 199.91 77.68 200.2 78.16 200.7 78.86 201.07 79.67 201.43 80.07 201.9 80.57 202.38 81.68 202.6 82.06 202.95 82.24 203.59 83.16 204.52 83.7 204.76 84.05 205.06 84.32 205.39 84.76 205.79 85.13 206.03 85.47 206.66 86.19 207.27 86.71 207.64 87.1 208.27 87.59 209.01 88.38 209.44 89.12 210.06 89.66 210.86 89.9 211.66 90.41 212.27 90.74 213.49 90.89 214.11 91.19 214.56 91.69 214.94 91.87 215.09 92.1 215.36 92.41 216.5 92.92 217.25 93.03 217.7 93.12 218.4 93.31 218.63 93.45 219.43 93.94 219.88 94.02 220.51 94.31 221.31 94.79 221.86 94.98 222.66 95.25 224.08 95.1 224.81 95.26 225.16 95.46 225.53 95.62 226.21 95.64 226.73 95.85 227.09 95.82 227.71 95.63 228.02 95.64 228.26 95.81 229.8 96.42 230.38 96.52 230.84 96.48 232.09 95.88 232.54 95.87 233.55 96.13 234.31 95.96 234.89 96.08 235.47 96.42 235.53 96.66 235.84 97.52 235.67 97.89 235.52 98.45 235.53 99.14 235.74 99.99 235.98 100.31 236.07 100.58 235.91 101.49 235.9 101.92 235.88 102.72 235.77 103.14 235.64 103.72 235.77 104.13 235.57 104.81 235.37 104.98 235.25 105.22 235.38 105.66 235.38 105.93 235.06 106.54 235.08 107.77 235.25 108.38 234.99 109.16 235.04 109.77 234.94 110.55 234.77 111.43 234.74 111.91 234.6 112.66 234.41 113.18 234.22 113.88 234.28 114.49 234.11 114.88 234.06 115.52 233.68 116.23 233.45 116.94 233.44 117.93 232.97 119.44 232.5 121 232.39 122.43 232.15 122.94 232.1 123.59 231.93 124.12 231.94 124.58 231.97 125.06 231.18 126.83 230.95 128.02 230.94 128.56 230.81 128.81 230.34 129.13 230.23 129.36 230.25 129.67 230.21 129.92 229.83 130.3 229.76 130.76 229.16 132.14 229.06 133.1 228.78 133.57 228.1 134.91 227.93 135.96 227.48 137.12 227.28 137.66 226.61 139.35 226.3 140.45 225.9 140.99 225.47 142.19 225.2 142.49 224.72 143.13 224.38 144.21 223.72 145.23 223.52 145.75 223.13 146.3 222.98 146.7 222.47 147.5 222.38 147.92 221.87 148.89 221.72 149.8 221.44 150.42 220.92 151.04 220.48 152.04 220.25 152.54 219.85 153.41 219.5 153.83 219.13 154.38 218.14 156.31 217.91 156.64 217.59 157.26 217.38 157.6 216.72 157.94 216.52 158.11 216.48 158.42 216.42 158.88 216.05 159.43 215.74 160.05 215.1 160.91 214.65 161.56 214.04 161.96 213.39 162.8 212.36 163.52 211.64 164.13 211.31 164.57 210.56 165.33 210 166.26 209.57 166.78 209.06 167.2 208.74 167.63 208.24 168.1 207.56 168.41 206.51 169.29 206.06 170.3 205.79 170.59 205.38 170.78 204.66 171.23 204.15 171.84 203.7 172.16 203.27 172.7 202.9 173.07 202.54 173.46 201.83 174.11 201.5 174.53 201.16 174.76 200.76 175.31 200.3 175.62 199.93 176.01 199.04 176.66 198.76 176.95 197.89 177.49 196.2 178.7 195.29 179.16 194.43 179.67 193.49 180.3 193.08 180.65 192.34 181.09 191.79 181.5 190.45 182.14 189.32 183.14 188.54 183.71 187.71 184.08 186.81 184.56 186.26 184.79 185.33 185.09 184.44 185.4 183.83 185.77 183.05 186.01 182.39 186.34 181.65 186.62 180.97 186.93 179.23 188.11 178.48 188.53 177.86 188.67 177.24 188.98 176.28 189.17 175.85 189.31 174.95 189.48 174.53 189.68 173.81 190.13 173.53 190.2 173.28 190.09 172.99 190.04 172.56 190.21 171.86 190.35 171.25 190.56 170.52 190.98 170.09 190.95 168.82 191.17 167.89 191.45 166.81 191.8 166.2 191.93 165.25 191.83 163.33 192.18 162.55 192.39 160.94 192.66 160.52 192.79 159.71 192.82 159.1 192.99 157.89 193.03" fill="#84583b" fill-rule="evenodd" stroke-width="0"/>
      <polyline points="150.04 173.91 149.43 174.28 148.99 174.45 148.5 174.44 147.82 174.43 146.26 174.27 145.93 174.01 145.02 173.66 144.44 173.11 143.79 172.42 142.92 171.35 142.81 170.87 142.69 170.58 142.36 170.35 142.03 169.89 141.75 169.08 141.47 168.6 141.1 167.13 140.93 166.34 140.75 165.57 140.55 165.18 139.96 163.55 139.89 162.89 139.71 162.51 139.67 162.02 139.5 161.62 139.01 160.28 138.84 159.42 138.65 159.24 138.37 159.25 137.99 159.44 137.63 159.84 137.45 160.36 137.5 161.01 137.41 161.24 136.86 161.67 136.33 162.77 136.2 163.54 136.14 164.19 135.88 164.48 135.64 164.95 134.99 165.47 134.08 166.63 133.63 166.96 133.1 167.55 131.62 168.62 131.08 168.78 130.61 169.05 130.34 169.36 130.25 170.13 129.36 171.31 128.69 171.63 128.43 171.94 128.23 172.1 127.59 172.17 126.9 172.81 126.48 173.01 125.92 173.01 125.48 173.35 125.19 173.4 124.66 173.19 123.67 172.74 123.16 172.09 122.88 171.57 122.44 171.07 122.32 170.54 122.34 170.14 122.38 169.48 122.79 168.78 123.33 167.49 124.77 166.09 125.84 165.06 126.35 164.77 126.86 164.16 127.36 163.52 128.11 162.93 128.73 161.91 129.03 161.43 129.8 160.68 130.04 160.01 130.23 159.49 130.61 159.1 131.23 158.76 131.9 157.92 132.38 157.61 132.66 157.33 133.21 156.74 133.47 156.43 133.52 155.45 133.71 155.09 133.8 154.66 133.97 154.1 134.69 153.13 135.3 152.44 135.57 151.79 135.57 151.1 135.8 150.45 135.89 150 136.04 149.44 136.41 148.71 136.59 147.81 136.77 147.29 136.89 146.54 136.69 145.56 136.51 145.12 136.29 144.96 136.02 144.66 135.75 144.36 134.84 144 134.29 143.41 133.97 143.17 133.57 142.81 133.16 142.28 132.66 141.81 132.44 141.44 132.36 140.81 131.82 139.34 131.84 138.49 131.73 137.8 131.75 137.37 131.62 136.94 131.63 136.13 131.54 135.59 131.53 135.13 131.79 134.67 131.95 134.27 131.93 133.83 132.11 133.15 132.41 132.37 133.08 131.55 133.43 130.96 134.6 129.85 136.16 129.19 137.95 128.56 138.68 128.52 139.15 128.4 139.78 128.35 140.18 128.23 141.94 128.19 142.5 127.96 143.02 127.91 143.67 127.8 144.17 127.81 145.07 127.96 145.66 128.08 147.29 128.25 147.76 128.5 148.21 129.01 148.82 129.32 149.21 129.7 149.55 129.92 149.84 130.2 150.29 130.5 150.68 130.86 151.24 131.64 151.78 132.26 152.12 132.9 152.24 133.69 152.96 134.52 153.15 134.9 153.08 135.47 153.16 136.12 152.95 136.63 152.95 136.88 153.19 137.24 153.23 137.56 153.02 138.27 152.45 139.02 152.11 140.62 151.91 141.15 151.55 141.53 151.25 141.96 150.9 142.2 150.67 142.55 150.06 143.25 149.62 143.41 149.15 143.55 147.99 144.33 147.41 144.57 146.82 144.64 146.79 144.69 147.05 144.99 147.02 145.09 146.6 145.25 146.08 145.25 145.39 145.39 144.46 145.85 143.96 146.33 143.89 146.59 143.96 147.56 143.9 148.04 144.02 148.87 143.8 149.72 143.74 150.53 143.63 151.13 143.69 151.41 143.97 151.7 144.22 152.25 144.26 152.75 144.38 153.7 145.05 155 145.04 155.29 145.04 155.81 145.04 156.32 144.77 156.78 144.77 157.1 145 157.46 145.38 158.27 145.48 158.89 145.61 159.56 145.54 160.02 145.52 160.29 145.82 161.02 145.95 161.73 146.36 162.8 146.61 163.32 146.91 164.24 146.99 164.68 147.18 165.06 147.23 165.37 147.08 165.95 147.13 166.25 147.49 167.07 147.83 168.55 148.11 169.04 148.43 169.93 148.73 170.21 149.13 170.97 149.51 172.02 150.09 172.58 150.37 173.05 150.4 173.49 150.29 173.75 150.04 173.91" fill="#221714" fill-rule="evenodd" stroke-width="0"/>
      <polyline points="185.81 110.74 184.65 111.12 184.05 111.06 183.39 111.02 182.65 110.89 182.09 110.86 180.91 110.65 180.28 110.37 179.4 109.3 178.83 108.96 178.16 108.3 177.71 107.79 177.6 107.27 176.75 105.34 176.84 104.57 176.64 103.76 176.29 103.34 176.17 103.09 176.3 102.14 176.66 101.41 176.87 100.54 176.79 100.25 176.48 100.02 176.3 99.8 176.27 99.27 176.4 99.04 176.65 99.01 176.9 98.99 177.03 98.57 177.19 97.52 177.53 96.93 177.55 96.08 177.76 95.23 178.39 94.03 178.57 93.32 179.01 92.79 179.38 92.08 179.91 91.31 180.54 90.78 181.33 90.65 181.52 90.31 181.7 90.1 182.29 89.89 183.24 89.43 183.74 89.38 185.44 89.82 186.04 89.92 186.85 90.19 187.5 90.44 188.03 90.86 188.53 91.08 188.99 91.57 189.45 92.28 190.03 93.06 190.71 94.14 191.07 95.2 191.51 96.72 191.66 97.1 191.89 97.91 191.99 98.72 192.09 99.72 191.84 100.91 191.95 101.43 191.91 101.86 192.01 102.35 192.14 103.48 191.64 104.78 191.4 104.94 190.96 104.98 190.71 105.12 190.47 105.64 190.56 106.15 190.34 106.99 189.48 108.03 188.5 108.95 188.28 109.45 188.1 109.65 187.49 109.86 187.17 110.11 186.69 110.4 185.81 110.74" fill="#221714" fill-rule="evenodd" stroke-width="0"/>
      <polyline points="97.52 109.86 96.84 110.29 96.44 110.4 95.68 110.26 95.08 110.19 94.71 110.33 93.96 110.3 93.57 110.14 92.51 109.32 92.27 108.76 91.71 108.18 91.38 107.51 90.48 106.5 90.18 105.82 89.73 105.51 89.15 104.71 89.13 104.43 89.43 104 89.49 103.52 89.43 102.44 89.23 101.83 88.95 100.47 89.03 100.02 89.03 99.17 89.23 98.3 89.18 97.81 89.26 97.08 89.39 96.68 89.53 95.93 90.14 94.89 90.46 94.62 90.54 94.41 90.45 93.96 90.48 92.48 90.64 92.28 91.62 91.97 92.02 91.77 92.2 91.4 92.51 91.12 92.84 90.71 93.18 90.46 93.57 90.08 94.48 89.47 95.27 89.31 95.87 89.39 96.91 89.39 97.37 89.23 98.55 89.17 99.16 89.48 99.93 89.81 100.83 90.17 101.15 90.42 101.4 90.96 101.41 91.54 101.96 92.09 102.34 92.49 102.67 93.15 102.9 93.76 102.84 94.39 103.07 94.75 103.23 95.17 103.59 96.99 103.58 97.67 103.72 98.41 103.6 98.98 103.68 99.62 103.55 100.98 103.4 101.65 103.26 102.41 103.08 102.94 103.03 103.42 102.89 103.84 102.34 105.42 102.08 105.9 101.44 106.6 100.91 107.54 100.58 107.78 100 108.35 99.58 109.03 98.95 109.41 98.02 109.57 97.52 109.86" fill="#221714" fill-rule="evenodd" stroke-width="0"/>
      <polyline points="241.8 89.85 241.16 89.96 240.57 90.12 239.89 90.12 239.21 89.9 238.17 89.71 237.44 89.81 235.59 89.91 235.23 90.08 234.93 90.09 233.31 90.11 232.74 89.96 232.25 89.95 231.68 90.18 231.11 90.08 230.55 90.04 230.16 89.93 228.64 89.69 227.82 89.64 227.15 89.4 226.62 89.03 226.2 88.9 225.32 88.5 224.77 88.54 224.03 88.41 223.4 88.15 222.49 88 221.27 87.62 220.41 87.18 219.62 86.87 218.85 86.77 218.4 86.47 218.04 86.29 217.71 86.06 216.17 84.77 214.85 83.86 213.94 83.5 213.68 83.18 212.81 82.57 212.09 81.96 211.67 81.62 211.37 81.37 211.03 80.94 210.43 80.41 209.74 79.54 209.45 78.83 208.96 77.94 208.35 77.18 207.91 76.93 207.61 76.64 207.2 75.66 206.6 75.1 206.22 74.29 205.66 73.06 205.24 72.29 204.8 71.15 204.27 70.52 204.06 70.12 203.63 68.93 203.06 68.14 203.03 67.84 202.98 67.36 202.78 67.14 202.36 66.05 202.09 65.29 202 64.89 201.84 64.46 201.7 63.77 201.4 62.86 201.3 62.23 200.99 61.78 201 61.2 200.62 60.18 200.55 59.55 200.14 58.57 199.93 57.96 199.95 57.11 199.72 56.04 199.7 55.37 199.52 53.65 199.27 53.42 199.4 53.22 199.56 52.83 199.59 52.36 199.13 50.79 198.89 49.11 198.72 48.5 198.51 47.18 198.49 46.71 198.38 45.84 198.23 44.99 198.24 44.53 198.2 44.08 198.26 43.8 198.31 43.15 198.49 41.93 198.41 41.19 198.48 40.21 198.35 39.56 198.41 39.08 198.31 38.61 198.02 37.69 198.16 36.78 198.11 36.37 198.09 35.76 197.88 34.58 198.02 34.02 198.08 33.2 198.3 32.7 198.33 31.87 198.47 29.37 198.7 28.85 199.01 28.07 199.23 27.42 199.71 26.93 199.98 26.82 200.88 26.92 201.64 26.71 202.43 26.59 203.25 26.21 203.98 26.26 204.39 26.1 204.88 25.97 205.9 25.98 206.35 25.83 207.45 25.78 208.28 25.73 209.95 25.55 211.06 25.64 211.87 25.54 212.87 25.3 213.46 25.4 213.77 25.33 214.12 25.09 215.02 24.61 215.35 24.57 215.6 24.72 216.2 25.89 216.33 25.96 216.49 25.94 217.08 25.56 217.75 25.41 218.03 25.28 218.56 25.03 218.99 25.06 220 25.05 220.49 25.19 220.98 25.24 221.87 25.05 222.37 24.95 223.22 25.18 223.71 25.22 224.27 25.37 224.96 25.79 226.11 26.06 226.58 25.96 227.54 26.03 228.38 25.91 228.93 26.04 229.87 26.48 230.33 26.53 230.92 26.37 231.39 26.41 232.16 26.45 233.54 26.57 234.3 26.9 235.32 26.91 235.8 26.97 236.25 26.91 237.5 27.02 237.89 27.41 238.27 27.55 239.18 27.91 239.76 28.05 240.46 28.02 240.95 28.02 241.73 28.35 242.81 28.28 243.33 28.48 243.8 28.76 244.3 28.99 246.04 30.01 246.72 30.07 247.19 30.36 247.52 30.36 248.02 30.37 248.36 30.6 248.78 30.72 249.26 30.98 249.59 31.41 249.7 32.01 249.9 32.17 250.54 32.23 250.84 32.51 251.25 32.63 252.24 32.88 252.92 33.33 253.46 33.5 253.81 33.71 254.34 34.11 255.35 34.96 255.65 35.45 255.97 35.67 256.55 35.82 257.09 36.22 257.6 36.67 258.6 37.32 259.03 37.65 259.78 37.99 260.28 38.43 260.8 39.09 261.34 39.47 261.78 40 262.5 40.58 263.46 40.9 263.9 41.21 264.15 41.74 264.55 42.09 265.64 42.68 266.13 43.1 266.32 43.73 266.92 44.28 267.09 44.87 267.21 45.26 267.92 46.08 268.16 46.66 268.39 47.01 269.02 47.27 269.44 47.82 269.88 48.36 270.06 48.77 270.3 49.11 270.79 49.33 271.09 49.84 271.35 49.93 271.59 50.05 271.83 50.86 272.51 51.72 272.62 52.5 272.93 52.99 273.25 53.43 273.37 54.35 273.51 54.62 274.03 55.03 274.69 55.71 275.14 56.01 275.63 56.66 276.06 56.99 276.37 57.25 276.6 57.82 276.96 58.44 276.98 58.87 277.04 59.12 277.47 59.44 277.58 59.69 277.48 59.94 277.34 60.52 277.35 60.94 277.64 61.67 277.73 62.42 277.91 62.85 278.31 63.43 278.48 63.85 278.37 64.46 278.53 65.18 278.95 66.34 279.32 67.57 279.26 68.34 279.48 68.69 279.55 68.96 279.44 69.38 279.46 70.13 279.67 70.56 280.04 71.36 280.16 71.82 279.93 72.34 279.88 72.84 279.57 73.29 278.88 74.27 278.49 74.83 278.04 74.98 277.82 75.13 277.6 75.66 277.35 75.97 276.1 76.52 275.42 77 274.31 78.17 273.89 78.34 272.86 78.89 271.64 79.29 270.94 79.76 270.11 80.01 269.51 80.39 268.79 80.68 268.4 81.05 267.01 81.67 265.67 82.29 265 82.8 264.43 83.01 263.85 83.42 263.4 83.56 262.17 84.14 261.57 84.33 259.88 85.22 258.84 85.76 257.89 86.2 256.81 86.7 256.3 86.81 253.53 87.7 252.91 87.66 251.72 87.91 250.2 88.42 249.66 88.45 247.96 88.58 247.4 88.83 246.6 89.04 245.83 89.05 245 89.24 244.11 89.38 242.84 89.76 241.8 89.85" fill="#84583b" fill-rule="evenodd" stroke-width="0"/>
      <polyline points="176.95 96.97 176.7 97.01 176.59 97.27 176.65 97.37 176.78 97.39 176.9 97.35 176.97 97.24 176.95 96.97" fill="#221714" fill-rule="evenodd" stroke-width="0"/>
      <polyline points="51.25 77.74 50.58 77.89 49.97 78.04 49.11 77.87 48.14 77.78 47.29 77.73 46.2 77.88 45.51 77.91 44.81 77.91 43.64 77.68 43.09 77.5 42.24 77.27 41.58 77.27 41.12 77.21 40.43 77.2 39.94 76.96 39.46 76.92 38.31 76.65 37.61 76.45 36.63 76.19 36.19 76.16 35.76 76.13 33.73 75.9 32.97 75.58 32.48 75.55 32.04 75.44 30.44 75.11 29.96 74.88 29.17 74.56 28.67 74.33 27.94 73.95 27.51 73.94 26.79 73.85 26.31 73.58 24.98 73.33 24.09 72.93 23.67 72.61 23.24 72.53 22.75 72.27 22.38 71.89 22.09 71.81 21.75 71.6 20.87 71.41 19.82 71 18.48 70.57 18.23 70.22 17.83 69.85 17.45 69.7 17.21 69.56 16.99 69.2 16.67 68.97 16.22 68.67 15.87 68.04 15.33 67.64 14.78 67.05 13.82 66.54 13.54 66.26 12.79 65.47 11.84 64.51 11.49 64.11 10.86 63.38 10.16 62.97 9.98 62.57 9.62 62.14 9.46 61.5 9.26 60.59 9.01 60.06 8.71 59.13 8.52 58.51 8.03 57.41 8.02 56.48 7.77 56.01 7.64 55.32 7.68 54.82 7.91 54.31 7.97 54.07 7.78 53.71 7.81 53.57 8.61 52.5 8.71 51.89 8.98 51.41 9.07 50.98 9.59 50.2 9.68 49.8 9.45 49.26 9.43 49.01 9.65 48.83 10.13 48.35 10.28 47.96 10.46 47.44 10.87 46.39 11.15 44.89 11.17 44.19 11.6 43.32 12.05 42.5 13.08 40.76 14.07 40.15 14.56 39.54 15.62 38.49 16.38 37.05 16.57 36.51 16.71 35.89 17.12 35.37 17.8 34.37 18.35 33.95 18.74 33.41 19.08 32.5 19.52 31.98 20.01 31.52 20.23 31.19 20.5 30.89 20.83 30.45 21.75 29.5 22.04 29.03 22.16 28.44 22.28 28.19 22.87 27.82 23.22 27.4 23.74 27.15 24.14 26.59 24.95 25.71 26.03 25.03 26.65 24.33 27.19 24.06 27.5 23.63 28.23 23.18 28.51 22.71 28.98 22.42 29.84 21.75 30.3 21.43 30.93 21.23 31.56 21.05 32.44 20.37 32.58 19.81 33.1 19.54 33.62 19.4 34.81 18.78 35 18.44 35.29 18.14 35.86 17.92 36.32 17.59 37.07 17.17 37.64 16.76 38.26 16.41 38.72 15.91 40.52 15.3 41.05 14.84 43.1 13.95 44.17 13.81 44.66 13.52 45.87 13.11 46.65 13.13 47.59 12.97 48.57 13.23 49.01 13.25 49.54 12.99 50.05 12.92 50.64 12.8 51.35 12.7 52.81 13.04 54.29 13.1 55.06 12.93 55.3 13.02 55.58 13.07 55.99 12.87 56.46 12.72 57.64 12.74 58.34 13.16 58.89 13.31 59.32 13.63 59.62 13.67 60.33 13.43 60.91 13.54 61.34 13.88 61.82 13.92 62.57 14.05 63.11 13.94 63.23 13.99 63.51 14.29 64.75 14.44 65.68 14.77 66.78 14.75 68.24 15.05 69.22 14.96 69.66 15.08 70.61 15.59 71.84 15.6 72.71 15.79 73.49 16.33 74.33 16.76 75.44 16.87 76.97 16.82 77.61 16.65 77.67 16.56 77.59 16.31 77.57 16.02 77.66 15.91 77.95 15.81 78.06 15.84 78.13 15.95 77.93 16.45 77.99 16.53 78.56 16.51 79.63 16.89 80.64 17.11 81.46 17.39 82.17 17.56 82.51 17.77 83.67 17.89 84.46 18.18 84.95 18.41 85.53 18.54 86.22 18.76 86.95 19.34 88.67 19.75 89.18 19.74 89.72 19.72 89.81 19.81 89.92 20.12 90.4 21.02 90.79 21.37 91.02 21.73 91.51 22.41 91.62 23.12 91.95 24 92.27 24.69 92.45 25.53 92.63 25.74 92.92 26.45 93.03 26.96 92.91 27.74 92.6 28.52 92.63 29.05 92.59 29.68 92.65 29.8 93.04 29.98 93.12 30.08 93.12 30.22 92.79 31.49 92.81 32.77 92.73 33.72 92.58 34.1 92.34 34.6 92.32 35.28 92.02 36.06 92 36.45 91.8 37.49 91.81 38.05 91.68 38.47 91.68 39.16 91.52 39.68 91.31 41.24 90.92 42.12 90.71 42.99 90.48 43.65 90.32 44.54 90.13 44.9 89.64 45.21 89.49 45.42 89.46 45.73 89.27 46.26 89.25 46.65 89.12 47.21 88.8 47.65 88.71 48.27 88.44 49.08 88.06 49.46 87.92 49.85 87.35 50.78 87.04 51.38 86.38 52.56 85.12 54.79 84.75 55.01 84.57 55.21 84.24 56.15 84.03 56.5 83.87 56.86 83.36 57.84 81.44 60.4 81 61.09 80.45 61.84 79.55 63.16 79.02 63.96 78.67 64.36 78.42 64.66 77.38 65.73 76.87 66 75.97 66.48 75.75 66.82 75.16 67.2 74.8 67.76 73.6 68.87 73.17 69.03 71.96 69.62 70.93 70.5 70.41 70.78 69.92 71.25 69.34 71.47 68.98 71.68 68.41 71.92 67.89 72.19 67.02 72.69 66.54 72.99 66.02 73.15 65.22 73.72 64.34 74.11 63.85 74.54 63.35 74.68 62.13 75.2 61.88 75.13 61.44 75.11 60.87 75.32 60.33 75.49 60.05 75.6 59.51 76.18 59.25 76.34 58.6 76.38 58.02 76.78 57.07 76.93 56.08 76.87 55.56 76.67 54.52 76.74 54.09 76.9 52.94 77.37 51.69 77.67 51.25 77.74" fill="#84583b" fill-rule="evenodd" stroke-width="0"/>
    </g>
  </g>
</svg>