<?xml version="1.0" encoding="UTF-8"?>
<svg id="graphic" xmlns="http://www.w3.org/2000/svg" viewBox="0 0 200.34 288.35">
  <g id="usagi">
    <polygon points="161.61 275.04 163.05 273.96 164.51 272.71 165.84 271.99 167.2 270.88 167.1 270.75 167.13 270.61 167.46 270.47 167.84 270.36 168.17 269.9 168.49 269.42 169.16 268.83 170.12 267.99 171 267.35 171.44 266.75 172.29 266.07 172.87 265.66 173.84 265.1 174.7 264.46 175.63 263.3 176.05 262.69 177.13 261.71 177.49 261.3 178.78 260.29 179.35 259.28 179.72 258.56 180.28 258.11 181.52 257.38 182.4 256.42 183.08 255.82 183.76 254.95 184.41 254.3 184.84 253.97 185.26 253.35 185.52 252.53 186.2 251.34 186.87 250.71 187.16 249.95 187.83 249.04 188.18 248.61 188.52 248.14 188.76 247.58 189.2 247.28 189.35 246.9 189.62 246.35 190.34 244.93 190.5 244 191.33 242.43 191.8 241.35 192.36 239.56 192.95 238.55 193.48 237.74 194.09 236.09 194.56 234.39 194.73 233.63 195.39 232.43 195.71 231.27 196.03 229.98 196.28 228.29 196.94 226.83 197.22 226.2 197.55 225.08 197.77 224.17 198.09 221.9 198.34 221.05 198.45 219.81 198.75 218.78 199.12 217.2 199.42 215.22 199.43 212.7 199.5 212.34 199.76 211.86 199.84 210.95 200 209.77 200.09 208.35 200.17 207.38 200.02 206.13 200.09 205.31 199.98 204 200.34 202.42 200.2 199.96 199.97 199.23 199.79 197.97 199.76 195.69 199.61 195.12 199.35 194.62 199.35 193.23 199.58 192.37 199.61 190.49 198.68 188.23 198.12 187.27 198.1 186.66 198.07 186.09 197.88 185.09 197.89 184.41 198.03 183.72 197.72 182.35 197.43 181.88 196.95 181.36 196.67 180.64 196.6 179.41 196.21 177.64 195.64 175.54 195.21 174.72 195.09 173.58 194.84 172.86 193.76 170.47 193.51 169.98 193.41 169.37 192.85 168.42 192.64 167.23 192.29 165.64 191.89 164.8 191.58 164.12 191.36 163.6 190.66 162.78 190.28 162.15 189.88 161.09 189.38 160.56 188.84 159.58 188.18 158.76 187.69 157.98 187.46 157.06 187.35 156.33 186.79 155.61 186.01 154.62 185.74 154.14 185.2 153.64 184.55 152.31 183.56 151.26 183.11 150.45 182.81 150 182.62 149.69 181.5 149.21 181.13 148.8 180.89 148.09 180.92 147.5 180.66 147.01 178.91 145.63 176.84 143.6 176.28 142.89 175.32 141.81 174.21 140.61 173.72 140.04 172.94 139.07 170.92 137.42 170.17 136.87 169.6 136.15 167.96 135.16 167.52 134.83 166.99 134.33 166.1 133.64 165.8 133.18 164.74 132.43 163.7 132.08 162.89 131.58 162.3 131.13 161.5 130.61 160.51 130.24 159.38 129.54 158.52 128.83 158.2 128.6 158.15 128.25 158.48 127.53 158.51 126.74 159.08 125.18 159.49 124.26 159.85 123.52 160.31 122.36 160.48 121.45 161.03 120.36 161.26 119.22 162 117.75 162.56 116.99 163.19 115.74 163.27 115.16 163.6 114.41 164.02 112.41 164.43 111.24 164.78 110.09 165.09 109.61 165.47 108.05 165.59 107.43 165.83 106.88 166.25 105 166.72 103.55 167.31 100.83 167.54 99.8 167.6 99.15 168.2 97.86 168.85 96.09 169.26 94.25 169.49 93.39 169.64 92.43 169.77 91.85 169.89 90.9 170.07 89.58 170.37 88.51 170.45 87.64 170.82 86.67 171.41 85.94 171.65 85.39 171.75 84.55 171.96 84 171.67 82.68 171.82 82.12 171.76 81.47 172.56 78.65 172.67 78.07 172.83 77.39 172.85 75.72 172.64 74.77 172.7 73.94 172.65 73.5 172.92 72.71 173.39 71.71 173.5 70.8 173.59 70.13 173.53 68.95 173.36 68.15 173.62 67.12 173.49 66.05 173.56 64.83 173.51 64.19 173.44 63.31 173.33 61.33 173.45 59.53 173.12 56.71 172.99 56.16 173.21 54.91 173.4 53.62 173.13 51.92 172.91 51.17 173.05 50.49 172.77 49.26 172.75 47.9 172.5 45.55 172.27 44.8 172.11 42.16 172.03 40.6 171.79 39.65 171.48 38.97 171.46 37.98 171.39 37.42 171.37 36.59 171.03 34.57 170.35 32.48 170.23 31.16 169.86 29.62 169.63 28.65 169.29 27.75 169.19 26.91 169.06 26.24 168.93 25.12 168.31 23.3 167.81 21.84 167.54 21.37 166.93 19.53 166.59 18.66 166.32 18.17 166.12 17.39 165.51 16.5 165.07 15.93 164.74 15.27 163.81 14.4 163.66 14.04 163.66 13.12 163.09 11.74 162.35 10.93 161.98 10.53 161.53 9.96 160.53 9.16 160.01 7.94 159.55 7.6 158.44 6.89 157.51 6.22 157.11 5.4 156.85 4.91 155.56 3.86 153.18 2.52 152.39 2.23 151.91 1.91 149.45 1.09 147.8 .58 147.05 0 146.19 .02 144.66 .14 143.3 .2 141.58 .28 140.5 .24 138.42 .83 136.86 1.19 135.77 1.55 133.81 2.28 133.25 2.43 132.45 3.18 130.88 3.82 129.93 4.09 129.33 4.51 128.41 5.69 127.38 6.42 126.39 6.9 125.35 8.2 124.72 8.59 124.08 9.23 123.41 9.85 123.02 10.24 122.68 10.67 122.3 11.03 121.31 12.43 120.9 13.36 120.09 14.08 118.48 16.42 118.19 16.93 117.83 17.34 116.51 19.74 116.09 20.38 115.62 21.53 115.26 22.22 114.9 22.94 114.04 24.18 113.9 24.59 113.89 25.37 113.49 26.01 113.32 26.93 112.82 27.78 112.62 28.77 111.8 30.06 111.55 30.91 111.34 31.8 110.82 34.83 110.22 36.09 109.61 37.09 109.03 39.36 108.32 41.63 107.52 44.67 107.2 46.52 107 47.12 106.94 48.02 106.37 50.22 106.14 51.06 105.72 52.88 105.52 53.48 105.5 54.4 105.03 55.78 104.83 56.82 104.85 57.39 104.58 58.73 104.49 60.5 104.3 61.4 104.22 62.01 104.05 62.66 103.98 63.52 103.77 64.44 103.85 65.3 103.83 66.02 103.83 66.62 103.46 68.15 103.36 69.56 103.26 70.65 103.2 71.38 103.3 72.44 103.12 74.41 102.87 75.56 102.81 76.75 102.66 77.64 102.8 78.25 102.64 79.88 102.38 81.55 102.1 83.18 101.9 85.44 101.99 87.22 101.82 89.5 101.66 90.17 101.74 90.78 101.37 92.32 101.3 94.01 101.62 96.09 101.43 96.76 101.04 98.23 101.13 98.86 101.14 102.28 101.06 102.91 101.08 103.83 100.98 105.95 100.93 106.59 100.95 107.25 100.82 108.36 100.76 109.23 100.48 111.07 100.24 111.66 99.92 111.84 98.99 111.83 97.55 111.76 96.97 111.52 96.73 111.24 96.73 110.56 96.76 109.36 96.77 108.66 96.83 108.07 96.78 106.96 96.72 106.07 96.54 104.37 96.51 99.55 96.59 97.55 96.39 95.16 96.29 93.39 96.17 92.33 96.3 90.23 96.07 88.77 96.07 87.85 95.92 87.07 95.65 86.36 95.6 84.8 95.64 84.19 95.58 83.32 95.79 82.52 95.48 81.62 95.19 80.95 95.06 79.17 94.62 77.13 94.51 74.71 94.44 73.5 94.07 72.42 93.88 70.49 93.74 69.9 93.71 68.69 93.59 67.38 93.7 66.31 93.37 64.95 93.07 64.03 92.56 61.44 92.39 59.26 92.21 58.47 92.21 57.55 92.06 56.8 92.16 56.13 91.85 54.74 91.71 53.83 91.48 52.19 91.25 51.21 90.94 50.54 90.75 48.15 90.4 46.91 90.35 46.24 90.02 45.34 89.84 44.78 89.69 44.47 89.72 43.89 89.33 42.35 89.17 41.54 88.78 39.54 88.37 38.46 87.96 37.88 87.65 36.28 87.23 35.47 86.62 32.93 85.89 31.44 85.5 30.36 85.33 29.34 84.82 28.12 84.53 27.43 84.06 26.41 83.88 25.88 83.45 25.29 82.86 23.21 82.3 22.05 81.29 20.09 80.67 17.8 79.97 16.72 78.89 15.97 78.71 15.66 78.5 14.9 78.26 14.38 77.46 13.66 76.46 12.35 76.13 11.93 75.52 10.56 74.25 9.27 73.75 8.96 73.27 8.21 72.98 7.5 72.49 7.21 71.97 6.92 71.48 6.39 70.64 5.68 69.97 5.05 68.59 4.31 67.53 3.3 66.52 2.71 65.92 2.26 63.57 1.37 62.7 1.23 61.78 1.26 61.16 1.04 60.54 .64 59.08 .18 57.99 .05 56.87 .11 56.29 .16 54.41 .11 52.9 .26 52.17 .23 50.8 .53 48.9 1.33 47.19 1.8 46.52 1.82 45.45 2.52 44.86 3.23 43.54 3.61 42.59 4.18 40.53 5.93 39.46 6.62 38.77 7.19 38.19 7.62 37.9 8.12 37.56 9.17 37.32 9.44 36.43 9.76 35.31 10.41 34.68 10.75 34.36 11.21 33.5 13.32 32.96 14.12 32.31 14.74 31.47 15.72 30.84 16.37 30.61 16.98 30.38 18.11 29.85 18.9 29.27 19.63 27.29 23.24 26.96 24.27 26.7 25.11 26.36 25.82 25.8 26.86 25.17 28.41 24.92 28.95 24.58 30.27 23.95 32.37 23.56 33.92 22.87 35.65 22.47 36.32 22.28 37.9 22.22 39.1 21.91 39.86 21.45 40.73 21.14 43.04 21.03 44.14 21.05 46.19 20.79 47.34 20.27 47.83 19.77 50.23 19.73 53.02 19.51 54.39 19.5 55.08 19.28 56.26 19.19 58.36 19.07 60.05 19.08 61.43 19.2 63.71 19.05 64.62 19.01 66.27 19.28 68.35 19.44 70.09 19.44 71.24 19.51 73.27 19.46 73.87 19.74 76.63 20.04 79.41 20.47 83.95 20.51 84.82 20.71 86.27 20.91 87.51 21.1 88.05 21.29 88.82 21.62 90.18 21.78 91.89 22.27 94.14 22.58 95.49 22.93 96.15 23.7 98.56 23.98 99.47 24.52 101.36 25.59 104.67 26.05 106.17 26.24 107.15 26.94 109.15 27.23 110.07 28.09 112.85 28.6 114.05 29.92 117.4 30.19 118.12 30.37 118.67 30.78 119.28 31.11 121.3 31.61 122.53 32.23 123.66 32.63 125.19 33.23 126.55 33.51 127.91 32.62 129.67 31.9 130.51 30.82 131.44 30.15 132.07 29.42 132.59 28.58 133.56 27.92 134.17 26.19 136.38 25.2 137.48 23.91 138.72 22.13 140.86 21.82 141.9 20.53 143.19 20.14 143.85 19.68 144.43 19.11 145.46 18.34 146.83 17.17 147.95 16.13 149.84 15.81 150.6 15.38 151.21 14.98 151.88 14.47 152.41 13.93 153.77 13.8 154.19 12.98 154.89 12.63 155.61 12.14 157.04 11.66 157.86 10.93 159.28 10.56 159.96 10.22 161 9.53 162.18 9.22 162.93 8.7 163.68 8.54 164.73 8.42 165.29 7.22 166.98 6.47 168.96 6.29 169.88 6.15 171.37 5.74 172.28 5.43 172.75 5.07 174.05 4.5 175.95 4.38 176.67 4.2 177.29 4.05 178.27 3.72 179.02 3.13 180.84 2.92 182.26 2.68 183.13 2.63 184.02 2.42 184.65 2.28 185.33 1.55 187.04 1.51 187.75 1.61 188.84 1.55 189.73 1.33 190.91 .88 191.8 .81 192.51 .72 193.42 .68 194.05 .76 194.93 .71 195.89 .86 196.64 .84 197.63 .57 198.97 .46 200.65 .47 203.4 .21 204.47 .17 206.57 .26 207.64 0 208.36 .35 210.12 .45 210.75 .75 213.88 .7 215.95 .93 217.38 1.09 218.17 1.24 219.43 1.84 221.51 2.2 223.29 2.43 224.29 2.69 225.22 3.03 227.97 3.49 229.91 4.01 231.35 4.31 232.27 4.63 233.86 5.17 235.75 5.79 236.88 6.03 237.83 6.72 239.58 7.72 241.13 8.34 242.24 8.68 242.65 8.88 243.41 9.26 244.04 10 245.78 10.2 247.11 10.62 247.84 11.27 249.03 12.52 250.4 13.04 251.6 13.89 252.54 14.73 253.41 15.73 254.64 16.4 255.56 17 255.67 18.2 256.57 19.29 258.7 20.33 259.73 21.58 261.06 22.03 261.38 22.55 261.89 23.56 262.71 24.04 263.23 25.17 264.19 25.94 265.19 27.4 266.36 28.15 267.13 28.74 267.36 29.66 267.79 30.14 268.56 31.36 269.45 32.81 269.87 35.09 271.3 35.89 272.05 37.77 273.35 38.73 274.19 39.9 274.65 40.48 274.73 41.28 274.98 42.63 275.56 43.5 276.25 45.25 277.36 47.78 278.15 49.66 279.18 50.31 279.35 52.99 280.23 53.88 280.67 53.96 281.01 55.48 281.32 57.6 281.93 59.85 282.94 61.93 283.06 62.34 283.02 62.91 283.27 63.59 283.64 67.12 284.35 67.83 284.56 68.92 284.85 70.89 285.04 73.08 285 74.29 285.44 75.29 285.71 76.4 285.84 77.61 285.92 78.19 286.16 79.7 286.29 81.15 286.93 83.17 287.44 86.72 287.75 92.11 287.87 96.24 288.35 96.3 288.22 97.48 288.1 98.54 287.71 100.3 287.57 101.21 287.66 103.16 287.58 104.78 287.83 105.64 287.8 107.55 287.98 108.87 287.88 109.51 287.8 111.02 287.67 111.89 287.78 113.65 287.67 115.16 288.01 116.54 288.12 118.45 287.6 119.28 287.49 119.7 287.12 119.85 287.08 120.17 287.26 120.24 287.47 121.23 286.88 122.46 287.02 123.45 286.63 124.66 286.69 126.74 286.82 128.32 286.9 129.41 286.48 131.3 286.5 132.01 285.95 132.52 285.43 132.92 285.07 134.25 284.68 135.73 284.54 137.3 284.18 138.29 283.67 140.31 282.71 141.34 282.57 142.79 282.07 143.43 282 144.38 281.7 146.71 281.17 148.16 280.97 150.02 280.42 150.84 280.16 151.86 279.34 154.62 278.32 156.03 277.52 157.32 276.93 157.29 276.65 157.62 276.49 158.79 276.4 159.84 275.51 161.61 275.04" fill="#231815" fill-rule="evenodd"/>
    <polyline points="88.88 279.64 86.97 279.57 85.56 279.34 84.8 279.04 84.16 279.05 82.85 278.94 81.43 278.86 79.6 278.66 76.42 278.35 75.25 277.94 74.16 277.96 73.6 277.73 73.01 277.71 72.23 277.51 71.15 277.23 70.38 276.9 68.94 276.82 68.1 276.57 66.73 276.42 65.68 276.09 64.17 275.85 63.53 275.66 61.93 275.39 61.44 275.09 60.76 274.72 59.87 274.5 56.96 273.57 55.88 273.43 54.14 272.75 53.51 272.1 52.85 271.92 51.1 271.48 49.21 270.66 48.3 270.34 47.5 269.88 46.75 269.32 45.38 268.57 44.08 267.96 42.6 267.07 40.93 266.72 40.41 266.43 38.23 264.49 37.2 263.9 36.11 263.39 34.88 262.76 33.98 261.84 33.28 261.5 31.63 260.02 30.3 258.78 29.28 258.45 28.94 258 28.22 257.22 27.45 256.9 26.95 256.37 26.75 255.85 26.41 255.16 25.34 254.21 24.86 253.63 24.37 253.09 23.97 252.49 23.18 251.99 21.96 250.18 20.88 249.42 20.18 248.35 20.13 247.48 19.98 247.14 19.59 246.73 19.19 246.15 17.91 244.86 16.61 243.11 16.34 242.41 15.83 241.88 15.54 241.42 14.9 240.3 14.57 239.2 13.88 237.87 13.87 237.13 13.13 236.11 12.58 234.66 11.85 233.19 11.36 231.74 11.28 231.11 11 229.47 10.27 227.29 10.12 226.7 9.56 225.29 9.56 224.53 9.4 223.73 9.27 222.44 8.97 221.52 8.8 220.5 8.57 219.98 8.21 218.89 8.27 218.14 8.11 216.65 8.1 215.53 7.84 214.55 7.63 212.87 7.29 211.31 7.14 210.03 7.21 208.12 7.32 207.47 7.26 204.92 7.13 204.1 6.96 203.31 7.1 201.61 7.1 200.49 7.19 198.62 7.41 197.84 7.48 197.21 7.52 196.33 7.41 195.56 7.56 194.38 7.53 193.53 8.36 190.22 8.58 189.06 8.97 186.66 9.24 185.84 9.42 184.65 9.71 183.9 9.77 182.98 10.9 178.83 11.27 177.21 11.79 174.94 12.23 174.06 12.77 172.99 13.11 171.95 13.73 170.41 14.47 168.72 14.92 167.55 15.58 165.39 16.34 164 16.83 163.18 17.32 161.48 17.78 160.89 18.11 160.14 19.06 158.73 19.38 157.97 19.91 157.21 20.16 156.64 20.59 156 20.96 155.04 21.64 153.84 22.29 153.21 23.51 151.26 24.03 150.2 25.24 149.09 26.02 148.32 26.56 147.27 27.14 146.55 27.72 145.55 28.16 144.92 28.54 144.24 28.92 143.87 29.59 143.22 30.9 142.27 31.96 141.01 32.52 140.24 33.29 139.18 34.15 138.52 35.42 137.77 36.76 136.57 38.27 134.97 39.63 134.09 40.12 133.53 40.91 132.81 41.69 131.47 41.97 129.59 41.94 128.78 41.36 127.62 40.72 126.5 40.17 124.66 39.64 123.91 39.33 123.25 39.04 122.08 38.41 121.18 38.27 120.38 38.07 118.85 37.56 117.88 37.08 116.61 36.67 115.34 35.82 112.77 35.41 112.16 34.76 110.83 34.54 110.1 33.93 107.81 33.46 107.02 33.24 106.28 32.79 105.47 32.26 103.35 32.24 102.67 32.03 101.92 31.74 100.75 31.39 100.32 31.23 100.03 31.24 99.46 30.95 98.78 30.68 97.8 29.79 94.36 29.39 93.76 29.27 92.94 28.96 92.25 28.91 91.3 28.56 90.41 28.5 89.88 28.24 88.71 27.87 86.04 27.2 83.32 27.29 81.77 27.15 80.77 26.89 79.79 27.11 77.72 27.05 77.12 26.88 75.41 26.49 73.41 26.5 72.26 26.43 71.61 26.34 70.44 26.08 69.03 26.11 68.4 26.1 67.32 26.05 66.2 26.04 63.89 26.01 62.98 26.07 62.25 25.94 60.06 26.04 59.41 26.12 58.21 26.31 56.28 26.41 55.45 26.44 54.87 26.5 53.43 26.86 50.59 27.04 49.95 27.45 48.01 27.75 45.87 28.79 40.82 29.16 38.51 29.69 36.59 30.14 35.09 30.45 33.75 30.99 32.61 31.44 31.44 32.34 29.64 32.98 27.56 34.8 24.66 35.48 23.44 36.66 21.74 38.15 18.97 39.37 17.02 40.51 16.1 41.1 15.42 42.32 14.05 43.63 13.09 44.19 12.63 45.75 11.69 46.86 10.76 48.78 9.69 49.52 9.18 50.24 8.91 51.05 8.48 51.84 8.3 52.67 7.88 54.32 7.63 56.36 8.05 58.04 8.3 59.4 8.57 60.54 8.65 61.58 8.98 62.9 10 63.61 10.36 64.99 11.11 66.1 12.08 67.51 13.02 68.64 14.21 69.71 15.66 70.29 16.12 71.11 17.09 71.69 18.24 72.91 19.82 73.14 20.35 74.58 23.59 75.02 24.15 75.84 25.81 76.24 26.42 76.6 27.06 77.13 28.03 77.48 28.89 78.06 30.75 78.58 31.48 78.95 32.35 80.43 37.2 80.99 38.84 82.14 43.01 82.65 45.13 83.27 46.95 83.6 48.54 84.03 50.52 84.23 52.27 84.55 53.18 84.58 53.86 84.74 54.87 84.68 55.56 84.75 56.58 84.95 58.02 85.53 60.1 85.78 62.67 86.25 65.09 86.38 66.9 86.32 67.87 86.49 70.06 86.73 71.26 87.12 73.02 87.57 75.47 87.62 76.64 87.62 77.8 87.6 78.97 87.95 81.7 88.15 82.47 88.77 85.73 89.37 87.14 89.24 90.15 89.5 93.88 89.48 95.18 89.53 96.93 89.47 97.57 89.52 98.4 89.73 99.18 89.59 100.05 89.7 104.13 89.88 106.31 89.8 107.85 89.7 108.5 89.76 110.71 89.9 112.44 89.94 114.28 90.26 115.88 90.7 116.92 91.49 117.67 92.53 118 94.23 118.95 96.44 119.17 97.67 119 99.2 119.38 100.26 119.36 101.04 119.32 102.21 119.34 103.69 119.56 104.32 119.46 105.39 118.79 106.13 117.97 106.55 117.35 106.85 116.55 106.92 114.9 107.14 114.11 107.17 112.72 107.01 112.14 107.03 111.52 107.1 109.74 107.34 107.32 107.31 106.72 107.38 106.07 107.3 103.67 107.58 101.73 107.73 100.3 107.79 97.85 108.05 95.34 108.19 94.66 108.25 94.13 108.37 93.54 108.38 93.17 108.42 92.44 108.52 91.03 108.64 89.93 108.69 87.73 108.78 84.63 109.15 83.34 109.04 81.89 109.29 80.14 109.63 79.22 109.76 77.54 109.57 75.6 109.62 73.56 109.79 72.63 110.3 68.87 110.41 67.32 110.58 66.38 110.75 62.76 111.3 60.8 111.47 59.13 111.71 56.99 111.88 55.65 112.18 54.87 112.75 52.34 113.08 51.16 113.49 48.94 113.78 48.18 113.96 47.1 114.37 45.63 114.7 44.32 115 43.55 115.29 41.88 115.64 40.15 115.85 39.58 116.68 38.59 116.92 37.74 117.26 35.39 117.81 34.02 118.25 33.11 118.42 32.08 118.7 31.27 119.51 30.25 120.51 28.64 120.82 27.85 122.5 24.17 122.83 23.71 123.56 22.27 123.84 21.19 124.23 20.51 125.33 19.31 125.86 18.48 126.64 17.17 127.08 16.28 127.93 15.6 128.54 14.91 132.2 11.96 133.02 11.52 134.33 10.56 134.97 10.21 136.55 9.57 137.18 9.2 137.8 8.83 138.57 8.62 141.02 7.96 142.49 7.95 145.94 8.23 146.96 8.8 147.88 9 149.15 9.36 149.84 9.74 150.69 10.22 151.87 11.13 153.02 12.29 154.88 13.8 156.05 15.19 157.09 16.43 157.57 17.92 159.67 20.85 160.11 21.89 160.43 22.57 160.65 23.55 161.12 24.8 161.24 25.39 161.77 27.05 162.03 28.01 162.37 28.89 162.46 29.75 162.72 30.67 163.3 33.46 163.48 34.25 163.82 35.83 164.12 36.51 164.71 38.57 164.75 39.69 164.86 42.08 165.59 45.67 165.81 48.28 166.03 51.55 166.06 53.39 166.12 54.75 166.09 56.92 166.24 59.96 166.18 61.55 166.34 64.66 166.1 65.48 166.09 67.8 166.03 68.64 165.77 70.9 165.57 73.44 165.18 74.55 165.13 75.44 164.99 77.07 164.64 78.83 164.58 79.74 164 82.5 164.04 83.18 163.98 83.8 163.88 84.93 163.32 86.81 163.11 88.23 162.7 89.73 162.12 92.98 161.75 93.94 161.61 94.64 160.96 96.72 160.59 98.01 160.25 99.44 159.8 100.58 159.52 102.73 159.17 103.47 158.14 106.52 157.79 107.23 157.45 107.99 157.11 108.69 157.04 109.31 156.73 109.78 156.48 110.31 156.47 111.66 156.1 112.93 155.65 113.83 155.23 114.75 154.8 115.66 153.6 118.8 153.38 119.96 153.01 120.97 152.06 122.08 152.03 122.77 151.92 123.46 151.43 124.27 150.76 125.75 149.35 127.49 149.26 127.89 149.58 129.95 149.95 131.29 150.34 131.67 151.92 133.17 152.74 133.66 153.84 134.18 154.32 134.5 155.59 135.32 156.33 135.89 156.86 136.17 158.99 137.48 160.78 138.6 161.92 139.77 163.81 141.51 165.98 142.76 166.69 143.36 167.2 143.89 168.72 145.43 169.68 146.29 171 147.79 171.77 149 172.27 149.56 173.25 149.9 173.73 150.24 174.14 150.82 174.68 151.32 175.14 151.9 175.86 152.45 176.47 153.59 177.11 154.48 177.68 154.94 178.57 156.09 179.15 157.23 180.23 158.46 181.25 159.97 181.44 160.73 181.72 161.43 182.81 162.87 183.27 163.91 183.54 164.6 184.25 165.9 184.66 166.5 185.86 168.32 186.16 169.22 186.28 170.3 186.68 171.8 187.01 172.25 188.31 175.36 188.79 178.24 189.32 179.2 189.67 180.55 189.83 181.1 190.22 182.17 190.35 183 190.64 184.63 191.08 185.66 191.46 187.21 191.88 189.86 192.24 191.45 192.22 192.92 192.54 195.45 193.03 197.36 193.54 201.83 193.19 203.21 192.93 204.64 193.04 205.84 192.99 206.82 193.07 209.04 193.07 211.37 193.06 212.76 192.73 213.73 192.77 214.64 192.83 216.21 192.75 216.85 192.29 217.47 192.06 218.82 191.79 220.49 191.58 221.11 191.33 222.53 190.82 224.19 190.35 224.77 189.91 227.12 189.38 227.91 188.98 229.44 188.55 230.62 187.96 232.5 187.15 234.41 185.66 238.58 185.14 239.09 184.39 240.49 184.29 241.12 183.91 242.3 182.97 243.45 182.72 244.12 182.03 245.24 181.33 245.83 180.84 246.38 180.57 247.19 180.13 247.83 179.5 248.48 178.76 249.28 177.89 250.2 177.45 251.38 177.07 251.78 176.62 252.36 176.03 252.82 174.96 253.2 173.54 254.61 172.94 255.28 172.04 256.78 171.61 257.13 171.06 257.59 170.53 258.1 169.25 259.4 168.22 260.11 167.43 260.57 166.12 261.82 165.49 262.78 164.84 263.41 163.99 263.8 162.66 264.76 160.61 266.51 159.42 267.07 158.06 267.66 156.66 268.51 155.01 269.65 153.94 270.34 153.24 270.63 152.34 270.94 150.77 271.56 147.94 272.95 146.9 273.1 144.79 273.94 143.6 274.46 142.87 274.74 142.21 275.05 141.32 275.39 140.63 275.39 139.99 275.47 137.7 276.37 136.85 276.46 136.32 276.66 135.37 276.91 134.58 277.1 133.31 277.51 132.18 277.48 130.69 277.64 129.57 277.98 127.39 278.7 126.13 278.88 124.42 279.05 122.02 279.53 120.64 279.54 117.69 279.93 116.38 279.81 115.58 279.96 114.48 280.04 113.71 280.22 112.13 280.29 109.15 280.58 108.52 280.46 105.79 280.37 104.62 280.25 102.3 280.42 100.72 280.42 100.2 280.15 99.84 280.04 98.73 280.09 97.82 280.13 96.66 280.13 95.53 279.96 93.8 280.12 92.44 279.94 91.55 280.01 90.94 279.84 89.94 279.63 88.88 279.64" fill="#fff" fill-rule="evenodd"/>
    <polyline points="91.79 264.46 90.39 264.47 89.03 264.32 88.67 264.14 88.09 263.21 87.84 262.49 87.67 260.53 88.03 258.42 88.33 258.21 88.77 258.16 90.52 257.46 91.82 257.35 92.64 256.94 93.21 256.75 93.46 256.58 93.43 256.43 92.61 255.68 91.22 255.17 90.54 254.55 89.33 253.43 89.06 252.72 88.97 252.11 89.1 251.43 89.24 250.6 89.55 250.16 90.19 248.92 91.01 248.51 92.12 248.42 92.98 248.7 93.61 248.68 94.23 248.75 95.22 249.59 96.42 250.01 96.88 250.34 97.23 250.99 97.48 251.23 98.37 251.45 99.35 251.84 101.13 252.94 102.15 253.31 103.01 253.78 103.59 253.65 104.72 253.05 105.91 252.5 108.08 251.75 109.59 251.03 110.47 250.95 110.79 250.78 111.23 250.17 111.72 249.91 112.37 249.97 113.72 249.91 114.15 250.04 115.13 250.63 115.5 251.29 115.77 252.67 115.56 253.92 115.38 254.5 114.99 255.47 114.47 256.24 113.91 256.71 113.31 257.11 111.59 258.46 111.28 258.93 111.41 259.24 112.63 260.11 114.04 260.85 114.69 261.48 115.24 262.2 115.52 264.27 115.23 265.04 114.77 265.6 113.36 266.46 112.58 266.63 111.24 266.56 109.98 265.94 108.73 265.53 107.62 264.81 106.59 264.26 105.34 263.64 104.07 262.79 102.22 261.96 101.56 261.9 99.89 262.17 98.1 262.51 97.38 262.77 95.83 263.43 93.48 263.97 92.98 264.21 92.38 264.35 91.79 264.46" fill="#231815" fill-rule="evenodd"/>
    <polyline points="49.18 226.41 49.58 227.19 49.93 227.35 50.55 227.24 52 227.29 52.76 227.09 54.44 226.3 55.1 225.69 55.79 224.53 56.18 223.85 56.58 222.89 56.7 222.22 57.17 220.64 57.27 219.89 57.4 218.77 56.72 217.46 56.37 216.12 56.06 215.68 55.3 215.13 54.72 214.22 54.26 213.89 52.79 213.45 51.99 213.15 51.33 213.02 50.54 213.19 49.88 213.55 48.39 214.27 48.02 214.68 47.38 215.92 46.47 217.09 46.03 218.01 46.11 220.02 45.96 220.9 46.01 221.79 46.18 222.34 46.28 222.96 46.42 223.54 47.67 225.31 48.61 225.95 49.18 226.41" fill="#231815" fill-rule="evenodd"/>
    <polyline points="145.6 226.46 146.08 226.69 146.74 226.87 149.13 226.63 149.99 226.29 150.47 225.73 151.41 225.17 151.82 224.79 152.19 223.84 152.74 223.09 153.12 221.8 153.29 220.48 153.15 219.64 153.31 218.27 153.14 217.27 152.09 215.81 152.05 215.15 151.86 214.6 151.56 214.37 150.45 214.02 149.94 213.51 149.6 213.31 148.64 213.2 146.89 213.61 145.68 214.13 144.17 214.54 143.74 214.89 143.36 216.23 142.78 216.95 142.39 217.85 142.56 218.39 142.48 219.2 142.71 221.36 142.6 222.61 142.82 223.59 143.1 224.29 143.58 224.61 144.18 225.05 144.43 225.54 144.77 225.96 145.6 226.46" fill="#231815" fill-rule="evenodd"/>
  </g>
</svg>