<svg xmlns="http://www.w3.org/2000/svg" id="_レイヤー_1" data-name="レイヤー 1" viewBox="0 0 291.17 165.57">
  <g id="_07" data-name="07">
    <path d="m267.99,132.93l3.57.85c3.96.91,5.17,4.44,5.64,10.02,0,0,.62,14.34.62,14.87,0,.52-.5.82-1.3.95-3.36.52-8.79.9-11.09.91-2.3.01-7.73-.31-11.1-.8-.81-.12-1.31-.41-1.31-.94,0-.52.49-14.87.49-14.87.11-3.23.99-9.45,5.55-10.13l3.32-.82,5.61-.02Z" fill="#f09dc1" stroke="#231815" stroke-linecap="round" stroke-linejoin="round" stroke-width="1"/>
    <polygon points="290.67 165.07 240.19 165.07 244.45 144.34 286.42 144.34 290.67 165.07" fill="#fbd375" stroke="#231815" stroke-linecap="round" stroke-linejoin="round" stroke-width="1"/>
    <path d="m272.19,133.95s2.93.06,6.11,4.22c2.13,2.8,2.69,4.94,2.61,8.07-.09,3.33-3.25,8.15-3.83,8.15-.58,0-4.24-5.96-4.24-6.38,0-.42,1.3-4.46,1.3-4.46" fill="#f09dc1" stroke="#231815" stroke-linecap="round" stroke-linejoin="round" stroke-width="1"/>
    <path d="m257.85,134.1s-11.26,4.86-6.25,14.08l5.06-3.81" fill="#f09dc1" stroke="#231815" stroke-linecap="round" stroke-linejoin="round" stroke-width="1"/>
    <path d="m270.08,142.76c.74-1.51,2.09-4.86-.18-5.52-2.55-.74-3.42,2.09-3.72,3.82-.65-.09-1.33-.13-2.06-.11-.41.01-.8.06-1.17.12-.29-1.72-1.17-4.57-3.72-3.83-2.39.69-.78,4.37-.07,5.74-1.85,1.83-2.77,4.73-2.71,8.04.1,5.53,2.71,8.38,8.09,8.3,7.47-.1,8.2-3.08,8.14-9.45-.03-3.35-.97-5.68-2.6-7.12Z" fill="#b4b4b5" stroke="#231815" stroke-linecap="round" stroke-linejoin="round" stroke-width="1"/>
    <g>
      <path d="m252.77,149.92s2.03,1.65,3.33.12c1.3-1.54,3.4-6.91.65-7.47-2.75-.56-4.04.27-4.87,2.51-.83,2.23-.59,4.1.89,4.85Z" fill="#fad8be" stroke="#231815" stroke-linecap="round" stroke-linejoin="round" stroke-width="1"/>
      <line x1="256.6" y1="149.36" x2="254.57" y2="148.59" fill="#fad8be" stroke="#231815" stroke-linecap="round" stroke-linejoin="round" stroke-width="1"/>
      <line x1="257.33" y1="147.58" x2="255.4" y2="146.85" fill="#fad8be" stroke="#231815" stroke-linecap="round" stroke-linejoin="round" stroke-width="1"/>
      <line x1="257.91" y1="145.77" x2="256.1" y2="145.08" fill="#fad8be" stroke="#231815" stroke-linecap="round" stroke-linejoin="round" stroke-width="1"/>
    </g>
    <g>
      <path d="m265.52,135.65c6.48,0,12.86-3.37,15.79-7.84,2.94-4.46,1.32-14.48,1.32-14.48-1.46-5.86-6.08-15.73-17.11-15.73s-15.65,9.87-17.11,15.73c0,0-1.62,10.01,1.32,14.48,2.94,4.46,9.32,7.84,15.8,7.84Z" fill="#fce8cf" stroke="#231815" stroke-linecap="round" stroke-linejoin="round" stroke-width="1"/>
      <path d="m247.98,120.26h0s-.79-1.21-2.31-.54c-1.36.6-1.41,3.32-.01,4.99,1.47,1.77,3.38,1.77,3.38,1.77h0c-.73-1.8-1-4.07-1.06-6.21Z" fill="#fce8cf" stroke="#231815" stroke-linecap="round" stroke-linejoin="round" stroke-width="1"/>
      <path d="m282,126.47h0s1.91,0,3.38-1.77c1.39-1.67,1.35-4.39-.01-4.99-1.52-.67-2.31.54-2.31.54h0c-.06,2.15-.33,4.41-1.06,6.21Z" fill="#fce8cf" stroke="#231815" stroke-linecap="round" stroke-linejoin="round" stroke-width="1"/>
      <path d="m243.51,138.54s6.82-3.5,5.53-12.06c0,0-12.04.28-5.53,12.06Z" fill="#a87452" stroke="#231815" stroke-linecap="round" stroke-linejoin="round" stroke-width="1"/>
      <path d="m287.53,138.54s-6.82-3.5-5.53-12.06c0,0,12.04.28,5.53,12.06Z" fill="#a87452" stroke="#231815" stroke-linecap="round" stroke-linejoin="round" stroke-width="1"/>
      <g>
        <path d="m260.54,122.96c0,1.1-.75,1.99-1.68,1.99s-1.68-.89-1.68-1.99.75-1.99,1.68-1.99,1.68.89,1.68,1.99Z" fill="#231815"/>
        <polyline points="265.1 124.74 263.57 125.69 264.74 126.86" fill="none" stroke="#231815" stroke-linecap="round" stroke-linejoin="round" stroke-width="1"/>
        <path d="m269.62,122.96c0,1.1.75,1.99,1.68,1.99s1.68-.89,1.68-1.99-.75-1.99-1.68-1.99-1.68.89-1.68,1.99Z" fill="#231815"/>
        <g>
          <path d="m257.41,118.13c.25-.42.87-.84,1.44-.84.75,0,1.21.19,1.55.61" fill="none" stroke="#231815" stroke-linecap="round" stroke-linejoin="round" stroke-width="1"/>
          <path d="m272.76,118.13c-.25-.42-.87-.84-1.44-.84-.75,0-1.21.19-1.55.61" fill="none" stroke="#231815" stroke-linecap="round" stroke-linejoin="round" stroke-width="1"/>
        </g>
      </g>
      <g>
        <path d="m283.06,120.26c4.08-6.94,2-14.87-1.67-20.31-3.67-5.44-11.31-5.86-11.31-5.86,0,0-7.91-1.75-14.15.95-7.24,3.13-12.42,12.06-11.28,18.8.78,4.61,3.32,6.42,3.32,6.42,0,0,.11.96,1.99-.39,1.98-1.42,3.16-3.31,3.16-3.31,5.06.55,8.71-1.81,8.71-1.81,10.04.86,12.58-7.04,12.58-7.04,0,0,3.34,7.57,8.63,10.21v2.33Z" fill="#a87452" stroke="#231815" stroke-linecap="round" stroke-linejoin="round" stroke-width="1"/>
        <path d="m253.13,116.56s2.07-2.25,3.63-6.06" fill="none" stroke="#231815" stroke-linecap="round" stroke-linejoin="round" stroke-width="1"/>
        <path d="m261.84,114.75s3.18-1.79,5.13-6.69" fill="none" stroke="#231815" stroke-linecap="round" stroke-linejoin="round" stroke-width="1"/>
      </g>
      <path d="m272.01,128.37s-1.88,2.98-6.92,2.98-6.92-2.98-6.92-2.98" fill="none" stroke="#231815" stroke-linecap="round" stroke-linejoin="round" stroke-width="1"/>
      <g>
        <path d="m251.13,126.25c-.12,1.28.82,2.41,2.09,2.53,1.28.12,2.41-.82,2.53-2.09.12-1.28-.82-2.41-2.09-2.53-1.28-.12-2.41.82-2.53,2.09Z" fill="#f19a96"/>
        <path d="m274.57,126.25c-.12,1.28.82,2.41,2.09,2.53,1.28.12,2.41-.82,2.53-2.09.12-1.28-.82-2.41-2.1-2.53-1.28-.12-2.41.82-2.53,2.09Z" fill="#f19a96"/>
      </g>
    </g>
    <g>
      <path d="m273.73,147.67s-2.61-.19-2.79,1.81c-.19,2,1.18,7.61,3.75,6.5,2.58-1.12,3.15-2.54,2.55-4.84-.6-2.31-1.87-3.7-3.51-3.47Z" fill="#fad8be" stroke="#231815" stroke-linecap="round" stroke-linejoin="round" stroke-width="1"/>
      <line x1="270.91" y1="150.32" x2="273.02" y2="149.79" fill="#fad8be" stroke="#231815" stroke-linecap="round" stroke-linejoin="round" stroke-width="1"/>
      <line x1="271.34" y1="152.2" x2="273.34" y2="151.7" fill="#fad8be" stroke="#231815" stroke-linecap="round" stroke-linejoin="round" stroke-width="1"/>
      <line x1="271.78" y1="154.03" x2="273.78" y2="153.55" fill="#fad8be" stroke="#231815" stroke-linecap="round" stroke-linejoin="round" stroke-width="1"/>
    </g>
  </g>
  <g id="_06" data-name="06">
    <path d="m31.57,43.67c-7.97,0-12.23,5.49-12.23,8.56s4.25,7.5,13.35,6.2c1.17-.17,4.31-.77,4.31-2.84s1.65-1.54,3.01-3.72c1.36-2.19-.47-8.21-8.45-8.21Zm1.92,12.99c-1.13,0-2.04-.91-2.04-2.04s.91-2.04,2.04-2.04,2.04.91,2.04,2.04-.91,2.04-2.04,2.04Z" fill="#fbd375" stroke="#231815" stroke-linecap="round" stroke-linejoin="round" stroke-width=".53"/>
    <path d="m34.42,47.57c0,.75.61,1.36,1.36,1.36s1.36-.61,1.36-1.36-.61-1.36-1.36-1.36-1.36.61-1.36,1.36Z" fill="#e50038" stroke="#231815" stroke-linecap="round" stroke-width=".53"/>
    <path d="m30.22,46.59c0,.75.61,1.36,1.36,1.36s1.36-.61,1.36-1.36-.61-1.36-1.36-1.36-1.36.61-1.36,1.36Z" fill="#fff" stroke="#231815" stroke-width=".6"/>
    <path d="m25.73,47.3c0,.75.61,1.36,1.36,1.36s1.36-.61,1.36-1.36-.61-1.36-1.36-1.36-1.36.61-1.36,1.36Z" fill="#0085cd" stroke="#231815" stroke-linecap="round" stroke-linejoin="round" stroke-width=".53"/>
    <path d="m22.3,49.49c0,.75.61,1.36,1.36,1.36s1.36-.61,1.36-1.36-.61-1.36-1.36-1.36-1.36.61-1.36,1.36Z" fill="#00a63c" stroke="#231815" stroke-linecap="round" stroke-linejoin="round" stroke-width=".53"/>
  </g>
  <path id="_05" data-name="05" d="m44.67,27.28s5.84,7.59,2.62,9.91c-3.23,2.33-5.21-1.51-4.35-4.89.86-3.38,1.73-5.02,1.73-5.02Z" fill="#e50038" stroke="#231815" stroke-linecap="round" stroke-linejoin="round" stroke-width="1.2" data-sortId="4" data-color-hexCode="#e50038"/>
  <path id="_04" data-name="04" d="m47.59,16.72s8.2,4.95,6.04,8.29c-2.16,3.34-5.4.48-5.83-2.98-.43-3.46-.21-5.31-.21-5.31Z" fill="#e50038" stroke="#231815" stroke-linecap="round" stroke-linejoin="round" stroke-width="1.2" data-sortId="3" data-color-hexCode="#e50038"/>
  <g id="_03" data-name="03">
    <path d="m28.32,23.75s-17.67,24.03-19.86,26.92c-2.2,2.89-4.99,1.76-6.51.7-1.52-1.05-1.92-2.96-.36-5.39,1.55-2.42,20.16-26.59,20.16-26.59l6.57,4.34Z" fill="#f2984f" stroke="#231815" stroke-linecap="round" stroke-linejoin="round" stroke-width="1.2"/>
    <path d="m28.32,23.75s9.36.7,12.38-4.81c3.03-5.51,4.37-13.41,9.17-13.54,0,0-8.08-4.81-16-4.81-10.07,0-14.54,12.36-12.14,18.8l6.57,4.34Z" fill="#fff" stroke="#231815" stroke-linecap="round" stroke-linejoin="round" stroke-width="1"/>
    <path d="m24.04,6.1c2.16-3.16,5.47-5.49,9.84-5.5,7.92,0,16,4.81,16,4.81-4.81.13-6.15,8.02-9.17,13.54l-1.53-4.41-4.96.22-.7-5.09-4.72.28.37-3.77-5.12-.08Z" fill="#e50038" stroke="#231815" stroke-linecap="round" stroke-linejoin="round" stroke-width="1.2"/>
    <line x1="16.27" y1="26.54" x2="22.86" y2="31.18" fill="none" stroke="#231815" stroke-linecap="round" stroke-linejoin="round" stroke-width="1.2"/>
  </g>
  <g id="_02" data-name="02">
    <g>
      <line x1="126.51" y1="8.3" x2="145.62" y2="8.3" fill="none" stroke="#231815" stroke-linecap="round" stroke-linejoin="round" stroke-width="1.2"/>
      <path d="m128.22,8.3c0,.95-.77,1.71-1.71,1.71s-1.71-.77-1.71-1.71.77-1.71,1.71-1.71,1.71.77,1.71,1.71Z" fill="#231815"/>
      <path d="m147.33,8.3c0,.95-.77,1.71-1.71,1.71s-1.71-.77-1.71-1.71.77-1.71,1.71-1.71,1.71.77,1.71,1.71Z" fill="#231815"/>
    </g>
    <g>
      <line x1="168.51" y1="8.3" x2="187.62" y2="8.3" fill="none" stroke="#231815" stroke-linecap="round" stroke-linejoin="round" stroke-width="1.2"/>
      <path d="m170.23,8.3c0,.95-.77,1.71-1.71,1.71s-1.71-.77-1.71-1.71.77-1.71,1.71-1.71,1.71.77,1.71,1.71Z" fill="#231815"/>
      <path d="m189.34,8.3c0,.95-.77,1.71-1.71,1.71s-1.71-.77-1.71-1.71.77-1.71,1.71-1.71,1.71.77,1.71,1.71Z" fill="#231815"/>
    </g>
    <g>
      <line x1="210.52" y1="8.3" x2="229.63" y2="8.3" fill="none" stroke="#231815" stroke-linecap="round" stroke-linejoin="round" stroke-width="1.2"/>
      <path d="m212.23,8.3c0,.95-.77,1.71-1.71,1.71s-1.71-.77-1.71-1.71.77-1.71,1.71-1.71,1.71.77,1.71,1.71Z" fill="#231815"/>
      <path d="m231.34,8.3c0,.95-.77,1.71-1.71,1.71s-1.71-.77-1.71-1.71.77-1.71,1.71-1.71,1.71.77,1.71,1.71Z" fill="#231815"/>
    </g>
    <g>
      <line x1="84.5" y1="8.3" x2="103.61" y2="8.3" fill="none" stroke="#231815" stroke-linecap="round" stroke-linejoin="round" stroke-width="1.2"/>
      <path d="m86.22,8.3c0,.95-.77,1.71-1.71,1.71s-1.71-.77-1.71-1.71.77-1.71,1.71-1.71,1.71.77,1.71,1.71Z" fill="#231815"/>
      <path d="m105.33,8.3c0,.95-.77,1.71-1.71,1.71s-1.71-.77-1.71-1.71.77-1.71,1.71-1.71,1.71.77,1.71,1.71Z" fill="#231815"/>
    </g>
    <g>
      <line x1="252.52" y1="8.3" x2="271.63" y2="8.3" fill="none" stroke="#231815" stroke-linecap="round" stroke-linejoin="round" stroke-width="1.2"/>
      <path d="m254.23,8.3c0,.95-.77,1.71-1.71,1.71s-1.71-.77-1.71-1.71.77-1.71,1.71-1.71,1.71.77,1.71,1.71Z" fill="#231815"/>
      <path d="m273.34,8.3c0,.95-.77,1.71-1.71,1.71s-1.71-.77-1.71-1.71.77-1.71,1.71-1.71,1.71.77,1.71,1.71Z" fill="#231815"/>
    </g>
    <path d="m112.67,2.3c.09-.06.21-.09.32-.07.11.02.2.08.24.16l.92,2.01,1.42-1.94c.07-.1.21-.16.34-.15.14,0,.25.08.29.18l.77,2.04,1.46-1.86c.08-.09.21-.15.34-.14.13,0,.24.08.29.18,1.24,2.4,2.27,4.98,1.88,7.04-.39,2.23-2.31,3.53-6.4,3.38-.22,0-.43-.02-.64-.03,0,0-.01,0-.02,0-2.02-.15-3.35-.78-4.07-1.68-.73-.91-.84-2.05-.62-3.22.49-2.43,1.83-4.7,3.48-5.88Z" fill="#fbd375" stroke="#231815" stroke-linecap="round" stroke-linejoin="round" stroke-width="1.2"/>
    <path d="m154.68,2.3c.09-.06.21-.09.32-.07.11.02.2.08.24.16l.92,2.01,1.42-1.94c.07-.1.21-.16.34-.15.14,0,.26.08.29.18l.77,2.04,1.46-1.86c.08-.09.21-.15.34-.14.13,0,.24.08.29.18,1.24,2.4,2.27,4.98,1.88,7.04-.39,2.23-2.31,3.53-6.4,3.38-.22,0-.43-.02-.64-.03,0,0-.01,0-.02,0-2.02-.15-3.35-.78-4.07-1.68-.73-.91-.84-2.05-.62-3.22.49-2.43,1.83-4.7,3.48-5.88Z" fill="#e50038" stroke="#231815" stroke-linecap="round" stroke-linejoin="round" stroke-width="1.2"/>
    <path d="m196.68,2.3c.09-.06.21-.09.32-.07.11.02.2.08.24.16l.92,2.01,1.42-1.94c.07-.1.21-.16.34-.15.14,0,.26.08.29.18l.77,2.04,1.46-1.86c.08-.09.21-.15.34-.14.13,0,.24.08.29.18,1.24,2.4,2.27,4.98,1.88,7.04-.39,2.23-2.31,3.53-6.41,3.38-.22,0-.43-.02-.64-.03,0,0-.01,0-.02,0-2.02-.15-3.35-.78-4.07-1.68-.73-.91-.84-2.05-.62-3.22.49-2.43,1.83-4.7,3.48-5.88Z" fill="#0085cd" stroke="#231815" stroke-linecap="round" stroke-linejoin="round" stroke-width="1.2"/>
    <path d="m238.68,2.3c.09-.06.21-.09.32-.07.11.02.2.08.24.16l.92,2.01,1.42-1.94c.07-.1.21-.16.35-.15.14,0,.26.08.29.18l.77,2.04,1.46-1.86c.08-.09.2-.15.34-.14.13,0,.24.08.29.18,1.24,2.4,2.28,4.98,1.88,7.04-.39,2.23-2.31,3.53-6.41,3.38-.22,0-.43-.02-.64-.03,0,0-.01,0-.02,0-2.02-.15-3.35-.78-4.07-1.68-.72-.91-.84-2.05-.62-3.22.49-2.43,1.83-4.7,3.48-5.88Z" fill="#fbd375" stroke="#231815" stroke-linecap="round" stroke-linejoin="round" stroke-width="1.2"/>
    <path d="m70.67,2.3c.09-.06.21-.09.32-.07.11.02.2.08.24.16l.92,2.01,1.42-1.94c.07-.1.21-.16.34-.15.14,0,.25.08.29.18l.77,2.04,1.46-1.86c.08-.09.21-.15.34-.14.13,0,.24.08.29.18,1.24,2.4,2.27,4.98,1.88,7.04-.39,2.23-2.31,3.53-6.4,3.38-.22,0-.43-.02-.64-.03,0,0-.01,0-.02,0-2.02-.15-3.35-.78-4.07-1.68-.73-.91-.84-2.05-.62-3.22.49-2.43,1.83-4.7,3.48-5.88Z" fill="#0085cd" stroke="#231815" stroke-linecap="round" stroke-linejoin="round" stroke-width="1.2"/>
    <path d="m280.69,2.3c.09-.06.21-.09.32-.07.11.02.2.08.24.16l.92,2.01,1.42-1.94c.07-.1.21-.16.35-.15.14,0,.26.08.29.18l.77,2.04,1.46-1.86c.08-.09.2-.15.34-.14.13,0,.24.08.29.18,1.24,2.4,2.28,4.98,1.88,7.04-.39,2.23-2.31,3.53-6.41,3.38-.22,0-.43-.02-.64-.03,0,0-.01,0-.02,0-2.02-.15-3.35-.78-4.07-1.68-.73-.91-.84-2.05-.62-3.22.49-2.43,1.83-4.7,3.48-5.88Z" fill="#e50038" stroke="#231815" stroke-linecap="round" stroke-linejoin="round" stroke-width="1.2"/>
  </g>
  <g id="_01" data-name="01">
    <g>
      <line x1="73.51" y1="156.11" x2="92.62" y2="156.11" fill="none" stroke="#231815" stroke-linecap="round" stroke-linejoin="round" stroke-width="1.2"/>
      <path d="m75.22,156.11c0,.95-.77,1.71-1.71,1.71s-1.71-.77-1.71-1.71.77-1.71,1.71-1.71,1.71.77,1.71,1.71Z" fill="#231815"/>
      <path d="m94.33,156.11c0,.95-.77,1.71-1.71,1.71s-1.71-.77-1.71-1.71.77-1.71,1.71-1.71,1.71.77,1.71,1.71Z" fill="#231815"/>
    </g>
    <g>
      <line x1="115.51" y1="156.11" x2="134.62" y2="156.11" fill="none" stroke="#231815" stroke-linecap="round" stroke-linejoin="round" stroke-width="1.2"/>
      <path d="m117.23,156.11c0,.95-.77,1.71-1.71,1.71s-1.71-.77-1.71-1.71.77-1.71,1.71-1.71,1.71.77,1.71,1.71Z" fill="#231815"/>
      <path d="m136.34,156.11c0,.95-.77,1.71-1.71,1.71s-1.71-.77-1.71-1.71.77-1.71,1.71-1.71,1.71.77,1.71,1.71Z" fill="#231815"/>
    </g>
    <g>
      <line x1="157.52" y1="156.11" x2="176.63" y2="156.11" fill="none" stroke="#231815" stroke-linecap="round" stroke-linejoin="round" stroke-width="1.2"/>
      <path d="m159.23,156.11c0,.95-.77,1.71-1.71,1.71s-1.71-.77-1.71-1.71.77-1.71,1.71-1.71,1.71.77,1.71,1.71Z" fill="#231815"/>
      <path d="m178.34,156.11c0,.95-.77,1.71-1.71,1.71s-1.71-.77-1.71-1.71.77-1.71,1.71-1.71,1.71.77,1.71,1.71Z" fill="#231815"/>
    </g>
    <g>
      <line x1="31.5" y1="156.11" x2="50.61" y2="156.11" fill="none" stroke="#231815" stroke-linecap="round" stroke-linejoin="round" stroke-width="1.2"/>
      <path d="m33.22,156.11c0,.95-.77,1.71-1.71,1.71s-1.71-.77-1.71-1.71.77-1.71,1.71-1.71,1.71.77,1.71,1.71Z" fill="#231815"/>
      <path d="m52.33,156.11c0,.95-.77,1.71-1.71,1.71s-1.71-.77-1.71-1.71.77-1.71,1.71-1.71,1.71.77,1.71,1.71Z" fill="#231815"/>
    </g>
    <g>
      <line x1="199.52" y1="156.11" x2="218.63" y2="156.11" fill="none" stroke="#231815" stroke-linecap="round" stroke-linejoin="round" stroke-width="1.2"/>
      <path d="m201.23,156.11c0,.95-.77,1.71-1.71,1.71s-1.71-.77-1.71-1.71.77-1.71,1.71-1.71,1.71.77,1.71,1.71Z" fill="#231815"/>
      <path d="m220.34,156.11c0,.95-.77,1.71-1.71,1.71s-1.71-.77-1.71-1.71.77-1.71,1.71-1.71,1.71.77,1.71,1.71Z" fill="#231815"/>
    </g>
    <path d="m59.67,150.11c.09-.06.21-.09.32-.07.11.02.2.08.24.16l.92,2.01,1.42-1.94c.07-.1.21-.16.34-.15.14,0,.25.08.29.18l.77,2.04,1.46-1.86c.08-.09.21-.15.34-.14.13,0,.24.08.29.18,1.24,2.4,2.27,4.98,1.88,7.04-.39,2.23-2.31,3.53-6.4,3.38-.22,0-.43-.02-.64-.03,0,0-.01,0-.02,0-2.02-.15-3.35-.78-4.07-1.68-.73-.91-.84-2.05-.62-3.22.49-2.43,1.83-4.7,3.48-5.87Z" fill="#fbd375" stroke="#231815" stroke-linecap="round" stroke-linejoin="round" stroke-width="1.2"/>
    <path d="m101.68,150.11c.09-.06.21-.09.32-.07.11.02.2.08.24.16l.92,2.01,1.42-1.94c.07-.1.21-.16.34-.15.14,0,.26.08.29.18l.77,2.04,1.46-1.86c.08-.09.21-.15.34-.14.13,0,.24.08.29.18,1.24,2.4,2.27,4.98,1.88,7.04-.39,2.23-2.31,3.53-6.4,3.38-.22,0-.43-.02-.64-.03,0,0-.01,0-.02,0-2.02-.15-3.35-.78-4.07-1.68-.73-.91-.84-2.05-.62-3.22.49-2.43,1.83-4.7,3.48-5.87Z" fill="#e50038" stroke="#231815" stroke-linecap="round" stroke-linejoin="round" stroke-width="1.2"/>
    <path d="m143.68,150.11c.09-.06.21-.09.32-.07.11.02.2.08.24.16l.92,2.01,1.42-1.94c.07-.1.21-.16.34-.15.14,0,.26.08.29.18l.77,2.04,1.46-1.86c.08-.09.21-.15.34-.14.13,0,.24.08.29.18,1.24,2.4,2.27,4.98,1.88,7.04-.39,2.23-2.31,3.53-6.41,3.38-.22,0-.43-.02-.64-.03,0,0-.01,0-.02,0-2.02-.15-3.35-.78-4.07-1.68-.73-.91-.84-2.05-.62-3.22.49-2.43,1.83-4.7,3.48-5.87Z" fill="#0085cd" stroke="#231815" stroke-linecap="round" stroke-linejoin="round" stroke-width="1.2"/>
    <path d="m185.68,150.11c.09-.06.21-.09.32-.07.11.02.2.08.24.16l.92,2.01,1.42-1.94c.07-.1.21-.16.35-.15.14,0,.26.08.29.18l.77,2.04,1.46-1.86c.08-.09.2-.15.34-.14.13,0,.24.08.29.18,1.24,2.4,2.28,4.98,1.88,7.04-.39,2.23-2.31,3.53-6.41,3.38-.22,0-.43-.02-.64-.03,0,0-.01,0-.02,0-2.02-.15-3.35-.78-4.07-1.68-.72-.91-.84-2.05-.62-3.22.49-2.43,1.83-4.7,3.48-5.87Z" fill="#fbd375" stroke="#231815" stroke-linecap="round" stroke-linejoin="round" stroke-width="1.2"/>
    <path d="m17.67,150.11c.09-.06.21-.09.32-.07.11.02.2.08.24.16l.92,2.01,1.42-1.94c.07-.1.21-.16.34-.15.14,0,.25.08.29.18l.77,2.04,1.46-1.86c.08-.09.21-.15.34-.14.13,0,.24.08.29.18,1.24,2.4,2.27,4.98,1.88,7.04-.39,2.23-2.31,3.53-6.4,3.38-.22,0-.43-.02-.64-.03,0,0-.01,0-.02,0-2.02-.15-3.35-.78-4.07-1.68-.73-.91-.84-2.05-.62-3.22.49-2.43,1.83-4.7,3.48-5.87Z" fill="#0085cd" stroke="#231815" stroke-linecap="round" stroke-linejoin="round" stroke-width="1.2"/>
    <path d="m227.69,150.11c.09-.06.21-.09.32-.07.11.02.2.08.24.16l.92,2.01,1.42-1.94c.07-.1.21-.16.35-.15.14,0,.26.08.29.18l.77,2.04,1.46-1.86c.08-.09.2-.15.34-.14.13,0,.24.08.29.18,1.24,2.4,2.28,4.98,1.88,7.04-.39,2.23-2.31,3.53-6.41,3.38-.22,0-.43-.02-.64-.03,0,0-.01,0-.02,0-2.02-.15-3.35-.78-4.07-1.68-.73-.91-.84-2.05-.62-3.22.49-2.43,1.83-4.7,3.48-5.87Z" fill="none"/>
  </g>
</svg>