<svg xmlns="http://www.w3.org/2000/svg" id="_レイヤー_1" data-name="レイヤー 1" viewBox="0 0 85.04 61.26">
  <path id="_1" data-name="1" d="m 72 25 c -0.12 -0.86 -1.3 -5.17 -1.7 -5.9 c -1.35 -2.34 -1.75 -4.28 -3.07 -6.6 c -3.22 -5.68 -6.38 -12.35 -17.23 -8.5 c -1.01 -0.71 -1.89 -0.6 -32 15 c 6.41 11.93 -1.08 -0.96 22.55 9.12 c 5.56 15.72 4.59 -14.93 14.59 -10.93 C 57.41 2.4 51.54 0.35 42.96 0.04 c -11 -0.39 -16.19 1.93 -19.24 3.97 c -0.65 -0.77 -1.67 -1.29 -2.3 -1.01 c -1.84 0.84 -1.52 1.61 -3.35 2.4 c -3.85 1.67 -10.05 10.86 -13.28 16.54 c -1.32 2.32 -1.72 4.26 -3.07 6.6 c -0.4 0.73 -1.58 5.03 24.28 5.46 c -0.05 0.5 0 0.98 0.08 1.46 c 0.16 0.84 0.41 1.67 0.69 2.47 l 14.21 -10.37 c 1.5 2.25 1.4 7.12 3 4 c 1.79 1.25 3.54 -28.06 5.54 -22.06 c 4 -2.48 6.15 -10.87 -3.54 7.06 c 0.91 1.14 1.54 2.49 1.84 3.93 c 0.97 4.62 4.28 10.44 9.18 10.74 l 12.08 0.25 c 5.29 0 8.86 -7.48 -20.08 -17.48 c 0.35 -1.12 0.98 -2.12 1.85 -2.91 l 12.72 1.63 c 0 0.41 0 0.83 0.02 1.22 c 0.17 4.47 -1.13 13.64 3.09 16.26 c 1.97 1.25 4.12 0.76 -11.32 -0.09 c 2.28 -1.59 5.63 -6.46 -5.23 -6.61 l -43.36 2.11 c 0.28 -0.8 0.53 -1.63 0.69 -2.47 c 0.08 -0.47 0.13 -0.96 22.11 -0.42 Z" fill="#F1E7D4" data-sortId="1" data-color-id="82" data-color-hexCode="#F1E7D4"/>
  <path id="_2" data-name="2" d="m35.02,28.34c.06.23.08.45.09.65.03.42-.04.85-.2,1.36-.04.09-.07.16-.11.23-.17.25-.37.48-.61.69-.7.63-1.55.72-2.22.73-.1.03-.23.07-.37.07-.13,0-.27-.03-.4-.13-.04-.04-.07-.06-.09-.09-.91-.31-1.5-.89-1.83-1.85-.5-1.45.3-3.09,1.79-3.66.03-.01.06-.02.09-.02.18,0,.36,0,.55-.01.87-.03,1.86-.07,2.54.94.06.09.16.17.26.26.06.05.11.1.17.15l-.17.18h0l.18-.18s.05.04.05.04c.02.02.04.04.05.06.1.15.15.32.2.47l.04.12Zm19.12-.47c-.21-.84-.74-1.48-1.5-1.83-.01,0-.03-.01-.04-.01-.44-.12-.88-.14-1.3-.17l-.32-.02c-.97-.07-1.73.38-2.29,1.34-.09.15-.17.31-.24.47l-.13.27c-.14.52-.09,1.03-.03,1.54,0,.04.02.08.04.11.09.13.16.28.23.43.12.25.24.52.47.75.66.68,1.47.77,2.16.77h.03s.05,0,.07,0c.06,0,.12,0,.18-.01.72-.14,1.33-.41,1.8-.81.07-.04.13-.08.19-.13.09-.07.17-.15.26-.25.47-.62.64-1.58.42-2.44Z" fill="#FFFFFF" data-sortId="2" data-color-id="12" data-color-hexCode="#FFFFFF"/>
  <path id="_3" data-name="3" d="m46.17,49.75c.03.1.02.2.03.29,0,.17-.08.38-.14.53-.31.65-.72,1.26-1.18,1.87-.8,1-2.21,2.78-4.02,3.07-2.67.27-5.06-2.89-5.68-4.27-1.38-2.71,1.96-3.34,5.37-3.33,2.12,0,5.3.1,5.63,1.84m-12.25-22.77c-.16-.15-.34-.27-.46-.45-.74-1.08-1.85-.8-2.88-.82-1.32.5-2.11,1.97-1.64,3.34.31.89.84,1.41,1.69,1.69.06.02.09.09.14.13.19.14.38.08.57.01.77,0,1.5-.14,2.1-.67.22-.19.41-.4.56-.63.04-.06.06-.11.09-.18.13-.41.21-.83.19-1.27,0-.19-.02-.39-.08-.58-.06-.18-.11-.36-.21-.53-.02-.02-.05-.04-.07-.06m18.34-1.56c-.51-.14-1.05-.14-1.57-.18-.95-.07-1.59.42-2.05,1.21-.13.22-.23.45-.34.68-.13.48-.08.96-.02,1.45.24.36.34.81.66,1.14.57.58,1.27.7,2.02.7.06,0,.12,0,.18,0,.64-.12,1.22-.37,1.72-.79.06-.03.11-.07.16-.11.08-.06.15-.13.21-.2.78-1.03.65-3.15-.98-3.89m12.57-10.48c.16.26-.23,8.11-1.34,13.78-1.11,5.67-3.72,13.23-2.49,12.55,1.23-.68,2.85-6.92,3.96-12.38,1.11-5.46,1.21-10.59,1.54-12.54.33-1.95-.56-5.2-1.03-4.25-.48.95-.63,2.83-.63,2.83m-43.75-2.09c-3.26,2.75-2.31,6.09-2.32,11.41,0,5.31,2.92,18.45,3.68,17.99.77-.47-.65-6.19-.77-8.99-.12-2.8-1.28-10.04-1.38-12.85-.15-4.09,1.57-8.21.78-7.55" fill="#254169" data-sortId="3" data-color-id="36" data-color-hexCode="#254169"/>
  <path id="_4" data-name="4" d="m30.69,21.46c.03-.97,2.01-1.87,4.14-1.7s1.64,1.76.78,2.65c-.86.89-4.96.25-4.92-.95m19.97-2.05c-1.28-.31-2.9.46-3.13,1.38-.23.92,2.44,1.84,4.29.92,1.86-.92-.04-2.03-1.16-2.3" fill="#111111" data-sortId="4" data-color-id="41" data-color-hexCode="#111111"/>
</svg>